G04 #@! TF.GenerationSoftware,KiCad,Pcbnew,9.0.5*
G04 #@! TF.CreationDate,2025-10-10T13:46:02-04:00*
G04 #@! TF.ProjectId,power_supply_hat,706f7765-725f-4737-9570-706c795f6861,rev?*
G04 #@! TF.SameCoordinates,Original*
G04 #@! TF.FileFunction,Legend,Top*
G04 #@! TF.FilePolarity,Positive*
%FSLAX46Y46*%
G04 Gerber Fmt 4.6, Leading zero omitted, Abs format (unit mm)*
G04 Created by KiCad (PCBNEW 9.0.5) date 2025-10-10 13:46:02*
%MOMM*%
%LPD*%
G01*
G04 APERTURE LIST*
%ADD10C,0.300000*%
%ADD11C,0.150000*%
%ADD12C,0.120000*%
G04 APERTURE END LIST*
D10*
X101954510Y-80229400D02*
X103097368Y-80229400D01*
X102525939Y-80800828D02*
X102525939Y-79657971D01*
X101954510Y-88429400D02*
X103097368Y-88429400D01*
D11*
X133608333Y-95404819D02*
X133275000Y-94928628D01*
X133036905Y-95404819D02*
X133036905Y-94404819D01*
X133036905Y-94404819D02*
X133417857Y-94404819D01*
X133417857Y-94404819D02*
X133513095Y-94452438D01*
X133513095Y-94452438D02*
X133560714Y-94500057D01*
X133560714Y-94500057D02*
X133608333Y-94595295D01*
X133608333Y-94595295D02*
X133608333Y-94738152D01*
X133608333Y-94738152D02*
X133560714Y-94833390D01*
X133560714Y-94833390D02*
X133513095Y-94881009D01*
X133513095Y-94881009D02*
X133417857Y-94928628D01*
X133417857Y-94928628D02*
X133036905Y-94928628D01*
X134513095Y-94404819D02*
X134036905Y-94404819D01*
X134036905Y-94404819D02*
X133989286Y-94881009D01*
X133989286Y-94881009D02*
X134036905Y-94833390D01*
X134036905Y-94833390D02*
X134132143Y-94785771D01*
X134132143Y-94785771D02*
X134370238Y-94785771D01*
X134370238Y-94785771D02*
X134465476Y-94833390D01*
X134465476Y-94833390D02*
X134513095Y-94881009D01*
X134513095Y-94881009D02*
X134560714Y-94976247D01*
X134560714Y-94976247D02*
X134560714Y-95214342D01*
X134560714Y-95214342D02*
X134513095Y-95309580D01*
X134513095Y-95309580D02*
X134465476Y-95357200D01*
X134465476Y-95357200D02*
X134370238Y-95404819D01*
X134370238Y-95404819D02*
X134132143Y-95404819D01*
X134132143Y-95404819D02*
X134036905Y-95357200D01*
X134036905Y-95357200D02*
X133989286Y-95309580D01*
X105066666Y-86254819D02*
X105066666Y-86969104D01*
X105066666Y-86969104D02*
X105019047Y-87111961D01*
X105019047Y-87111961D02*
X104923809Y-87207200D01*
X104923809Y-87207200D02*
X104780952Y-87254819D01*
X104780952Y-87254819D02*
X104685714Y-87254819D01*
X105495238Y-86350057D02*
X105542857Y-86302438D01*
X105542857Y-86302438D02*
X105638095Y-86254819D01*
X105638095Y-86254819D02*
X105876190Y-86254819D01*
X105876190Y-86254819D02*
X105971428Y-86302438D01*
X105971428Y-86302438D02*
X106019047Y-86350057D01*
X106019047Y-86350057D02*
X106066666Y-86445295D01*
X106066666Y-86445295D02*
X106066666Y-86540533D01*
X106066666Y-86540533D02*
X106019047Y-86683390D01*
X106019047Y-86683390D02*
X105447619Y-87254819D01*
X105447619Y-87254819D02*
X106066666Y-87254819D01*
X104833333Y-54359580D02*
X104785714Y-54407200D01*
X104785714Y-54407200D02*
X104642857Y-54454819D01*
X104642857Y-54454819D02*
X104547619Y-54454819D01*
X104547619Y-54454819D02*
X104404762Y-54407200D01*
X104404762Y-54407200D02*
X104309524Y-54311961D01*
X104309524Y-54311961D02*
X104261905Y-54216723D01*
X104261905Y-54216723D02*
X104214286Y-54026247D01*
X104214286Y-54026247D02*
X104214286Y-53883390D01*
X104214286Y-53883390D02*
X104261905Y-53692914D01*
X104261905Y-53692914D02*
X104309524Y-53597676D01*
X104309524Y-53597676D02*
X104404762Y-53502438D01*
X104404762Y-53502438D02*
X104547619Y-53454819D01*
X104547619Y-53454819D02*
X104642857Y-53454819D01*
X104642857Y-53454819D02*
X104785714Y-53502438D01*
X104785714Y-53502438D02*
X104833333Y-53550057D01*
X105690476Y-53454819D02*
X105500000Y-53454819D01*
X105500000Y-53454819D02*
X105404762Y-53502438D01*
X105404762Y-53502438D02*
X105357143Y-53550057D01*
X105357143Y-53550057D02*
X105261905Y-53692914D01*
X105261905Y-53692914D02*
X105214286Y-53883390D01*
X105214286Y-53883390D02*
X105214286Y-54264342D01*
X105214286Y-54264342D02*
X105261905Y-54359580D01*
X105261905Y-54359580D02*
X105309524Y-54407200D01*
X105309524Y-54407200D02*
X105404762Y-54454819D01*
X105404762Y-54454819D02*
X105595238Y-54454819D01*
X105595238Y-54454819D02*
X105690476Y-54407200D01*
X105690476Y-54407200D02*
X105738095Y-54359580D01*
X105738095Y-54359580D02*
X105785714Y-54264342D01*
X105785714Y-54264342D02*
X105785714Y-54026247D01*
X105785714Y-54026247D02*
X105738095Y-53931009D01*
X105738095Y-53931009D02*
X105690476Y-53883390D01*
X105690476Y-53883390D02*
X105595238Y-53835771D01*
X105595238Y-53835771D02*
X105404762Y-53835771D01*
X105404762Y-53835771D02*
X105309524Y-53883390D01*
X105309524Y-53883390D02*
X105261905Y-53931009D01*
X105261905Y-53931009D02*
X105214286Y-54026247D01*
X143840833Y-93229819D02*
X143507500Y-92753628D01*
X143269405Y-93229819D02*
X143269405Y-92229819D01*
X143269405Y-92229819D02*
X143650357Y-92229819D01*
X143650357Y-92229819D02*
X143745595Y-92277438D01*
X143745595Y-92277438D02*
X143793214Y-92325057D01*
X143793214Y-92325057D02*
X143840833Y-92420295D01*
X143840833Y-92420295D02*
X143840833Y-92563152D01*
X143840833Y-92563152D02*
X143793214Y-92658390D01*
X143793214Y-92658390D02*
X143745595Y-92706009D01*
X143745595Y-92706009D02*
X143650357Y-92753628D01*
X143650357Y-92753628D02*
X143269405Y-92753628D01*
X144412262Y-92658390D02*
X144317024Y-92610771D01*
X144317024Y-92610771D02*
X144269405Y-92563152D01*
X144269405Y-92563152D02*
X144221786Y-92467914D01*
X144221786Y-92467914D02*
X144221786Y-92420295D01*
X144221786Y-92420295D02*
X144269405Y-92325057D01*
X144269405Y-92325057D02*
X144317024Y-92277438D01*
X144317024Y-92277438D02*
X144412262Y-92229819D01*
X144412262Y-92229819D02*
X144602738Y-92229819D01*
X144602738Y-92229819D02*
X144697976Y-92277438D01*
X144697976Y-92277438D02*
X144745595Y-92325057D01*
X144745595Y-92325057D02*
X144793214Y-92420295D01*
X144793214Y-92420295D02*
X144793214Y-92467914D01*
X144793214Y-92467914D02*
X144745595Y-92563152D01*
X144745595Y-92563152D02*
X144697976Y-92610771D01*
X144697976Y-92610771D02*
X144602738Y-92658390D01*
X144602738Y-92658390D02*
X144412262Y-92658390D01*
X144412262Y-92658390D02*
X144317024Y-92706009D01*
X144317024Y-92706009D02*
X144269405Y-92753628D01*
X144269405Y-92753628D02*
X144221786Y-92848866D01*
X144221786Y-92848866D02*
X144221786Y-93039342D01*
X144221786Y-93039342D02*
X144269405Y-93134580D01*
X144269405Y-93134580D02*
X144317024Y-93182200D01*
X144317024Y-93182200D02*
X144412262Y-93229819D01*
X144412262Y-93229819D02*
X144602738Y-93229819D01*
X144602738Y-93229819D02*
X144697976Y-93182200D01*
X144697976Y-93182200D02*
X144745595Y-93134580D01*
X144745595Y-93134580D02*
X144793214Y-93039342D01*
X144793214Y-93039342D02*
X144793214Y-92848866D01*
X144793214Y-92848866D02*
X144745595Y-92753628D01*
X144745595Y-92753628D02*
X144697976Y-92706009D01*
X144697976Y-92706009D02*
X144602738Y-92658390D01*
X108833333Y-56922080D02*
X108785714Y-56969700D01*
X108785714Y-56969700D02*
X108642857Y-57017319D01*
X108642857Y-57017319D02*
X108547619Y-57017319D01*
X108547619Y-57017319D02*
X108404762Y-56969700D01*
X108404762Y-56969700D02*
X108309524Y-56874461D01*
X108309524Y-56874461D02*
X108261905Y-56779223D01*
X108261905Y-56779223D02*
X108214286Y-56588747D01*
X108214286Y-56588747D02*
X108214286Y-56445890D01*
X108214286Y-56445890D02*
X108261905Y-56255414D01*
X108261905Y-56255414D02*
X108309524Y-56160176D01*
X108309524Y-56160176D02*
X108404762Y-56064938D01*
X108404762Y-56064938D02*
X108547619Y-56017319D01*
X108547619Y-56017319D02*
X108642857Y-56017319D01*
X108642857Y-56017319D02*
X108785714Y-56064938D01*
X108785714Y-56064938D02*
X108833333Y-56112557D01*
X109404762Y-56445890D02*
X109309524Y-56398271D01*
X109309524Y-56398271D02*
X109261905Y-56350652D01*
X109261905Y-56350652D02*
X109214286Y-56255414D01*
X109214286Y-56255414D02*
X109214286Y-56207795D01*
X109214286Y-56207795D02*
X109261905Y-56112557D01*
X109261905Y-56112557D02*
X109309524Y-56064938D01*
X109309524Y-56064938D02*
X109404762Y-56017319D01*
X109404762Y-56017319D02*
X109595238Y-56017319D01*
X109595238Y-56017319D02*
X109690476Y-56064938D01*
X109690476Y-56064938D02*
X109738095Y-56112557D01*
X109738095Y-56112557D02*
X109785714Y-56207795D01*
X109785714Y-56207795D02*
X109785714Y-56255414D01*
X109785714Y-56255414D02*
X109738095Y-56350652D01*
X109738095Y-56350652D02*
X109690476Y-56398271D01*
X109690476Y-56398271D02*
X109595238Y-56445890D01*
X109595238Y-56445890D02*
X109404762Y-56445890D01*
X109404762Y-56445890D02*
X109309524Y-56493509D01*
X109309524Y-56493509D02*
X109261905Y-56541128D01*
X109261905Y-56541128D02*
X109214286Y-56636366D01*
X109214286Y-56636366D02*
X109214286Y-56826842D01*
X109214286Y-56826842D02*
X109261905Y-56922080D01*
X109261905Y-56922080D02*
X109309524Y-56969700D01*
X109309524Y-56969700D02*
X109404762Y-57017319D01*
X109404762Y-57017319D02*
X109595238Y-57017319D01*
X109595238Y-57017319D02*
X109690476Y-56969700D01*
X109690476Y-56969700D02*
X109738095Y-56922080D01*
X109738095Y-56922080D02*
X109785714Y-56826842D01*
X109785714Y-56826842D02*
X109785714Y-56636366D01*
X109785714Y-56636366D02*
X109738095Y-56541128D01*
X109738095Y-56541128D02*
X109690476Y-56493509D01*
X109690476Y-56493509D02*
X109595238Y-56445890D01*
X122858333Y-60432319D02*
X122525000Y-59956128D01*
X122286905Y-60432319D02*
X122286905Y-59432319D01*
X122286905Y-59432319D02*
X122667857Y-59432319D01*
X122667857Y-59432319D02*
X122763095Y-59479938D01*
X122763095Y-59479938D02*
X122810714Y-59527557D01*
X122810714Y-59527557D02*
X122858333Y-59622795D01*
X122858333Y-59622795D02*
X122858333Y-59765652D01*
X122858333Y-59765652D02*
X122810714Y-59860890D01*
X122810714Y-59860890D02*
X122763095Y-59908509D01*
X122763095Y-59908509D02*
X122667857Y-59956128D01*
X122667857Y-59956128D02*
X122286905Y-59956128D01*
X123191667Y-59432319D02*
X123858333Y-59432319D01*
X123858333Y-59432319D02*
X123429762Y-60432319D01*
X142985833Y-88504580D02*
X142938214Y-88552200D01*
X142938214Y-88552200D02*
X142795357Y-88599819D01*
X142795357Y-88599819D02*
X142700119Y-88599819D01*
X142700119Y-88599819D02*
X142557262Y-88552200D01*
X142557262Y-88552200D02*
X142462024Y-88456961D01*
X142462024Y-88456961D02*
X142414405Y-88361723D01*
X142414405Y-88361723D02*
X142366786Y-88171247D01*
X142366786Y-88171247D02*
X142366786Y-88028390D01*
X142366786Y-88028390D02*
X142414405Y-87837914D01*
X142414405Y-87837914D02*
X142462024Y-87742676D01*
X142462024Y-87742676D02*
X142557262Y-87647438D01*
X142557262Y-87647438D02*
X142700119Y-87599819D01*
X142700119Y-87599819D02*
X142795357Y-87599819D01*
X142795357Y-87599819D02*
X142938214Y-87647438D01*
X142938214Y-87647438D02*
X142985833Y-87695057D01*
X143842976Y-87933152D02*
X143842976Y-88599819D01*
X143604881Y-87552200D02*
X143366786Y-88266485D01*
X143366786Y-88266485D02*
X143985833Y-88266485D01*
X141261905Y-81454819D02*
X141261905Y-80454819D01*
X141261905Y-80454819D02*
X141500000Y-80454819D01*
X141500000Y-80454819D02*
X141642857Y-80502438D01*
X141642857Y-80502438D02*
X141738095Y-80597676D01*
X141738095Y-80597676D02*
X141785714Y-80692914D01*
X141785714Y-80692914D02*
X141833333Y-80883390D01*
X141833333Y-80883390D02*
X141833333Y-81026247D01*
X141833333Y-81026247D02*
X141785714Y-81216723D01*
X141785714Y-81216723D02*
X141738095Y-81311961D01*
X141738095Y-81311961D02*
X141642857Y-81407200D01*
X141642857Y-81407200D02*
X141500000Y-81454819D01*
X141500000Y-81454819D02*
X141261905Y-81454819D01*
X142785714Y-81454819D02*
X142214286Y-81454819D01*
X142500000Y-81454819D02*
X142500000Y-80454819D01*
X142500000Y-80454819D02*
X142404762Y-80597676D01*
X142404762Y-80597676D02*
X142309524Y-80692914D01*
X142309524Y-80692914D02*
X142214286Y-80740533D01*
X123786905Y-53529819D02*
X123786905Y-52529819D01*
X123786905Y-52529819D02*
X124025000Y-52529819D01*
X124025000Y-52529819D02*
X124167857Y-52577438D01*
X124167857Y-52577438D02*
X124263095Y-52672676D01*
X124263095Y-52672676D02*
X124310714Y-52767914D01*
X124310714Y-52767914D02*
X124358333Y-52958390D01*
X124358333Y-52958390D02*
X124358333Y-53101247D01*
X124358333Y-53101247D02*
X124310714Y-53291723D01*
X124310714Y-53291723D02*
X124263095Y-53386961D01*
X124263095Y-53386961D02*
X124167857Y-53482200D01*
X124167857Y-53482200D02*
X124025000Y-53529819D01*
X124025000Y-53529819D02*
X123786905Y-53529819D01*
X124739286Y-52625057D02*
X124786905Y-52577438D01*
X124786905Y-52577438D02*
X124882143Y-52529819D01*
X124882143Y-52529819D02*
X125120238Y-52529819D01*
X125120238Y-52529819D02*
X125215476Y-52577438D01*
X125215476Y-52577438D02*
X125263095Y-52625057D01*
X125263095Y-52625057D02*
X125310714Y-52720295D01*
X125310714Y-52720295D02*
X125310714Y-52815533D01*
X125310714Y-52815533D02*
X125263095Y-52958390D01*
X125263095Y-52958390D02*
X124691667Y-53529819D01*
X124691667Y-53529819D02*
X125310714Y-53529819D01*
X131108333Y-89434580D02*
X131060714Y-89482200D01*
X131060714Y-89482200D02*
X130917857Y-89529819D01*
X130917857Y-89529819D02*
X130822619Y-89529819D01*
X130822619Y-89529819D02*
X130679762Y-89482200D01*
X130679762Y-89482200D02*
X130584524Y-89386961D01*
X130584524Y-89386961D02*
X130536905Y-89291723D01*
X130536905Y-89291723D02*
X130489286Y-89101247D01*
X130489286Y-89101247D02*
X130489286Y-88958390D01*
X130489286Y-88958390D02*
X130536905Y-88767914D01*
X130536905Y-88767914D02*
X130584524Y-88672676D01*
X130584524Y-88672676D02*
X130679762Y-88577438D01*
X130679762Y-88577438D02*
X130822619Y-88529819D01*
X130822619Y-88529819D02*
X130917857Y-88529819D01*
X130917857Y-88529819D02*
X131060714Y-88577438D01*
X131060714Y-88577438D02*
X131108333Y-88625057D01*
X131441667Y-88529819D02*
X132060714Y-88529819D01*
X132060714Y-88529819D02*
X131727381Y-88910771D01*
X131727381Y-88910771D02*
X131870238Y-88910771D01*
X131870238Y-88910771D02*
X131965476Y-88958390D01*
X131965476Y-88958390D02*
X132013095Y-89006009D01*
X132013095Y-89006009D02*
X132060714Y-89101247D01*
X132060714Y-89101247D02*
X132060714Y-89339342D01*
X132060714Y-89339342D02*
X132013095Y-89434580D01*
X132013095Y-89434580D02*
X131965476Y-89482200D01*
X131965476Y-89482200D02*
X131870238Y-89529819D01*
X131870238Y-89529819D02*
X131584524Y-89529819D01*
X131584524Y-89529819D02*
X131489286Y-89482200D01*
X131489286Y-89482200D02*
X131441667Y-89434580D01*
X126479819Y-72491666D02*
X126479819Y-72967856D01*
X126479819Y-72967856D02*
X125479819Y-72967856D01*
X126479819Y-71634523D02*
X126479819Y-72205951D01*
X126479819Y-71920237D02*
X125479819Y-71920237D01*
X125479819Y-71920237D02*
X125622676Y-72015475D01*
X125622676Y-72015475D02*
X125717914Y-72110713D01*
X125717914Y-72110713D02*
X125765533Y-72205951D01*
X106833333Y-55359580D02*
X106785714Y-55407200D01*
X106785714Y-55407200D02*
X106642857Y-55454819D01*
X106642857Y-55454819D02*
X106547619Y-55454819D01*
X106547619Y-55454819D02*
X106404762Y-55407200D01*
X106404762Y-55407200D02*
X106309524Y-55311961D01*
X106309524Y-55311961D02*
X106261905Y-55216723D01*
X106261905Y-55216723D02*
X106214286Y-55026247D01*
X106214286Y-55026247D02*
X106214286Y-54883390D01*
X106214286Y-54883390D02*
X106261905Y-54692914D01*
X106261905Y-54692914D02*
X106309524Y-54597676D01*
X106309524Y-54597676D02*
X106404762Y-54502438D01*
X106404762Y-54502438D02*
X106547619Y-54454819D01*
X106547619Y-54454819D02*
X106642857Y-54454819D01*
X106642857Y-54454819D02*
X106785714Y-54502438D01*
X106785714Y-54502438D02*
X106833333Y-54550057D01*
X107166667Y-54454819D02*
X107833333Y-54454819D01*
X107833333Y-54454819D02*
X107404762Y-55454819D01*
X135979819Y-60553094D02*
X134979819Y-60553094D01*
X134979819Y-60553094D02*
X134979819Y-60314999D01*
X134979819Y-60314999D02*
X135027438Y-60172142D01*
X135027438Y-60172142D02*
X135122676Y-60076904D01*
X135122676Y-60076904D02*
X135217914Y-60029285D01*
X135217914Y-60029285D02*
X135408390Y-59981666D01*
X135408390Y-59981666D02*
X135551247Y-59981666D01*
X135551247Y-59981666D02*
X135741723Y-60029285D01*
X135741723Y-60029285D02*
X135836961Y-60076904D01*
X135836961Y-60076904D02*
X135932200Y-60172142D01*
X135932200Y-60172142D02*
X135979819Y-60314999D01*
X135979819Y-60314999D02*
X135979819Y-60553094D01*
X134979819Y-59648332D02*
X134979819Y-59029285D01*
X134979819Y-59029285D02*
X135360771Y-59362618D01*
X135360771Y-59362618D02*
X135360771Y-59219761D01*
X135360771Y-59219761D02*
X135408390Y-59124523D01*
X135408390Y-59124523D02*
X135456009Y-59076904D01*
X135456009Y-59076904D02*
X135551247Y-59029285D01*
X135551247Y-59029285D02*
X135789342Y-59029285D01*
X135789342Y-59029285D02*
X135884580Y-59076904D01*
X135884580Y-59076904D02*
X135932200Y-59124523D01*
X135932200Y-59124523D02*
X135979819Y-59219761D01*
X135979819Y-59219761D02*
X135979819Y-59505475D01*
X135979819Y-59505475D02*
X135932200Y-59600713D01*
X135932200Y-59600713D02*
X135884580Y-59648332D01*
X118525057Y-66570238D02*
X118477438Y-66665476D01*
X118477438Y-66665476D02*
X118382200Y-66760714D01*
X118382200Y-66760714D02*
X118239342Y-66903571D01*
X118239342Y-66903571D02*
X118191723Y-66998809D01*
X118191723Y-66998809D02*
X118191723Y-67094047D01*
X118429819Y-67046428D02*
X118382200Y-67141666D01*
X118382200Y-67141666D02*
X118286961Y-67236904D01*
X118286961Y-67236904D02*
X118096485Y-67284523D01*
X118096485Y-67284523D02*
X117763152Y-67284523D01*
X117763152Y-67284523D02*
X117572676Y-67236904D01*
X117572676Y-67236904D02*
X117477438Y-67141666D01*
X117477438Y-67141666D02*
X117429819Y-67046428D01*
X117429819Y-67046428D02*
X117429819Y-66855952D01*
X117429819Y-66855952D02*
X117477438Y-66760714D01*
X117477438Y-66760714D02*
X117572676Y-66665476D01*
X117572676Y-66665476D02*
X117763152Y-66617857D01*
X117763152Y-66617857D02*
X118096485Y-66617857D01*
X118096485Y-66617857D02*
X118286961Y-66665476D01*
X118286961Y-66665476D02*
X118382200Y-66760714D01*
X118382200Y-66760714D02*
X118429819Y-66855952D01*
X118429819Y-66855952D02*
X118429819Y-67046428D01*
X118429819Y-65665476D02*
X118429819Y-66236904D01*
X118429819Y-65951190D02*
X117429819Y-65951190D01*
X117429819Y-65951190D02*
X117572676Y-66046428D01*
X117572676Y-66046428D02*
X117667914Y-66141666D01*
X117667914Y-66141666D02*
X117715533Y-66236904D01*
X105516666Y-74254819D02*
X105516666Y-74969104D01*
X105516666Y-74969104D02*
X105469047Y-75111961D01*
X105469047Y-75111961D02*
X105373809Y-75207200D01*
X105373809Y-75207200D02*
X105230952Y-75254819D01*
X105230952Y-75254819D02*
X105135714Y-75254819D01*
X105992857Y-75254819D02*
X105992857Y-74254819D01*
X105992857Y-74254819D02*
X106373809Y-74254819D01*
X106373809Y-74254819D02*
X106469047Y-74302438D01*
X106469047Y-74302438D02*
X106516666Y-74350057D01*
X106516666Y-74350057D02*
X106564285Y-74445295D01*
X106564285Y-74445295D02*
X106564285Y-74588152D01*
X106564285Y-74588152D02*
X106516666Y-74683390D01*
X106516666Y-74683390D02*
X106469047Y-74731009D01*
X106469047Y-74731009D02*
X106373809Y-74778628D01*
X106373809Y-74778628D02*
X105992857Y-74778628D01*
X106945238Y-74350057D02*
X106992857Y-74302438D01*
X106992857Y-74302438D02*
X107088095Y-74254819D01*
X107088095Y-74254819D02*
X107326190Y-74254819D01*
X107326190Y-74254819D02*
X107421428Y-74302438D01*
X107421428Y-74302438D02*
X107469047Y-74350057D01*
X107469047Y-74350057D02*
X107516666Y-74445295D01*
X107516666Y-74445295D02*
X107516666Y-74540533D01*
X107516666Y-74540533D02*
X107469047Y-74683390D01*
X107469047Y-74683390D02*
X106897619Y-75254819D01*
X106897619Y-75254819D02*
X107516666Y-75254819D01*
X102166666Y-54834819D02*
X102166666Y-55549104D01*
X102166666Y-55549104D02*
X102119047Y-55691961D01*
X102119047Y-55691961D02*
X102023809Y-55787200D01*
X102023809Y-55787200D02*
X101880952Y-55834819D01*
X101880952Y-55834819D02*
X101785714Y-55834819D01*
X102547619Y-54834819D02*
X103166666Y-54834819D01*
X103166666Y-54834819D02*
X102833333Y-55215771D01*
X102833333Y-55215771D02*
X102976190Y-55215771D01*
X102976190Y-55215771D02*
X103071428Y-55263390D01*
X103071428Y-55263390D02*
X103119047Y-55311009D01*
X103119047Y-55311009D02*
X103166666Y-55406247D01*
X103166666Y-55406247D02*
X103166666Y-55644342D01*
X103166666Y-55644342D02*
X103119047Y-55739580D01*
X103119047Y-55739580D02*
X103071428Y-55787200D01*
X103071428Y-55787200D02*
X102976190Y-55834819D01*
X102976190Y-55834819D02*
X102690476Y-55834819D01*
X102690476Y-55834819D02*
X102595238Y-55787200D01*
X102595238Y-55787200D02*
X102547619Y-55739580D01*
X128205833Y-92324819D02*
X127872500Y-91848628D01*
X127634405Y-92324819D02*
X127634405Y-91324819D01*
X127634405Y-91324819D02*
X128015357Y-91324819D01*
X128015357Y-91324819D02*
X128110595Y-91372438D01*
X128110595Y-91372438D02*
X128158214Y-91420057D01*
X128158214Y-91420057D02*
X128205833Y-91515295D01*
X128205833Y-91515295D02*
X128205833Y-91658152D01*
X128205833Y-91658152D02*
X128158214Y-91753390D01*
X128158214Y-91753390D02*
X128110595Y-91801009D01*
X128110595Y-91801009D02*
X128015357Y-91848628D01*
X128015357Y-91848628D02*
X127634405Y-91848628D01*
X129062976Y-91658152D02*
X129062976Y-92324819D01*
X128824881Y-91277200D02*
X128586786Y-91991485D01*
X128586786Y-91991485D02*
X129205833Y-91991485D01*
X133608333Y-93654819D02*
X133275000Y-93178628D01*
X133036905Y-93654819D02*
X133036905Y-92654819D01*
X133036905Y-92654819D02*
X133417857Y-92654819D01*
X133417857Y-92654819D02*
X133513095Y-92702438D01*
X133513095Y-92702438D02*
X133560714Y-92750057D01*
X133560714Y-92750057D02*
X133608333Y-92845295D01*
X133608333Y-92845295D02*
X133608333Y-92988152D01*
X133608333Y-92988152D02*
X133560714Y-93083390D01*
X133560714Y-93083390D02*
X133513095Y-93131009D01*
X133513095Y-93131009D02*
X133417857Y-93178628D01*
X133417857Y-93178628D02*
X133036905Y-93178628D01*
X134465476Y-92654819D02*
X134275000Y-92654819D01*
X134275000Y-92654819D02*
X134179762Y-92702438D01*
X134179762Y-92702438D02*
X134132143Y-92750057D01*
X134132143Y-92750057D02*
X134036905Y-92892914D01*
X134036905Y-92892914D02*
X133989286Y-93083390D01*
X133989286Y-93083390D02*
X133989286Y-93464342D01*
X133989286Y-93464342D02*
X134036905Y-93559580D01*
X134036905Y-93559580D02*
X134084524Y-93607200D01*
X134084524Y-93607200D02*
X134179762Y-93654819D01*
X134179762Y-93654819D02*
X134370238Y-93654819D01*
X134370238Y-93654819D02*
X134465476Y-93607200D01*
X134465476Y-93607200D02*
X134513095Y-93559580D01*
X134513095Y-93559580D02*
X134560714Y-93464342D01*
X134560714Y-93464342D02*
X134560714Y-93226247D01*
X134560714Y-93226247D02*
X134513095Y-93131009D01*
X134513095Y-93131009D02*
X134465476Y-93083390D01*
X134465476Y-93083390D02*
X134370238Y-93035771D01*
X134370238Y-93035771D02*
X134179762Y-93035771D01*
X134179762Y-93035771D02*
X134084524Y-93083390D01*
X134084524Y-93083390D02*
X134036905Y-93131009D01*
X134036905Y-93131009D02*
X133989286Y-93226247D01*
X138895833Y-61009580D02*
X138848214Y-61057200D01*
X138848214Y-61057200D02*
X138705357Y-61104819D01*
X138705357Y-61104819D02*
X138610119Y-61104819D01*
X138610119Y-61104819D02*
X138467262Y-61057200D01*
X138467262Y-61057200D02*
X138372024Y-60961961D01*
X138372024Y-60961961D02*
X138324405Y-60866723D01*
X138324405Y-60866723D02*
X138276786Y-60676247D01*
X138276786Y-60676247D02*
X138276786Y-60533390D01*
X138276786Y-60533390D02*
X138324405Y-60342914D01*
X138324405Y-60342914D02*
X138372024Y-60247676D01*
X138372024Y-60247676D02*
X138467262Y-60152438D01*
X138467262Y-60152438D02*
X138610119Y-60104819D01*
X138610119Y-60104819D02*
X138705357Y-60104819D01*
X138705357Y-60104819D02*
X138848214Y-60152438D01*
X138848214Y-60152438D02*
X138895833Y-60200057D01*
X139800595Y-60104819D02*
X139324405Y-60104819D01*
X139324405Y-60104819D02*
X139276786Y-60581009D01*
X139276786Y-60581009D02*
X139324405Y-60533390D01*
X139324405Y-60533390D02*
X139419643Y-60485771D01*
X139419643Y-60485771D02*
X139657738Y-60485771D01*
X139657738Y-60485771D02*
X139752976Y-60533390D01*
X139752976Y-60533390D02*
X139800595Y-60581009D01*
X139800595Y-60581009D02*
X139848214Y-60676247D01*
X139848214Y-60676247D02*
X139848214Y-60914342D01*
X139848214Y-60914342D02*
X139800595Y-61009580D01*
X139800595Y-61009580D02*
X139752976Y-61057200D01*
X139752976Y-61057200D02*
X139657738Y-61104819D01*
X139657738Y-61104819D02*
X139419643Y-61104819D01*
X139419643Y-61104819D02*
X139324405Y-61057200D01*
X139324405Y-61057200D02*
X139276786Y-61009580D01*
X111333333Y-56922080D02*
X111285714Y-56969700D01*
X111285714Y-56969700D02*
X111142857Y-57017319D01*
X111142857Y-57017319D02*
X111047619Y-57017319D01*
X111047619Y-57017319D02*
X110904762Y-56969700D01*
X110904762Y-56969700D02*
X110809524Y-56874461D01*
X110809524Y-56874461D02*
X110761905Y-56779223D01*
X110761905Y-56779223D02*
X110714286Y-56588747D01*
X110714286Y-56588747D02*
X110714286Y-56445890D01*
X110714286Y-56445890D02*
X110761905Y-56255414D01*
X110761905Y-56255414D02*
X110809524Y-56160176D01*
X110809524Y-56160176D02*
X110904762Y-56064938D01*
X110904762Y-56064938D02*
X111047619Y-56017319D01*
X111047619Y-56017319D02*
X111142857Y-56017319D01*
X111142857Y-56017319D02*
X111285714Y-56064938D01*
X111285714Y-56064938D02*
X111333333Y-56112557D01*
X111809524Y-57017319D02*
X112000000Y-57017319D01*
X112000000Y-57017319D02*
X112095238Y-56969700D01*
X112095238Y-56969700D02*
X112142857Y-56922080D01*
X112142857Y-56922080D02*
X112238095Y-56779223D01*
X112238095Y-56779223D02*
X112285714Y-56588747D01*
X112285714Y-56588747D02*
X112285714Y-56207795D01*
X112285714Y-56207795D02*
X112238095Y-56112557D01*
X112238095Y-56112557D02*
X112190476Y-56064938D01*
X112190476Y-56064938D02*
X112095238Y-56017319D01*
X112095238Y-56017319D02*
X111904762Y-56017319D01*
X111904762Y-56017319D02*
X111809524Y-56064938D01*
X111809524Y-56064938D02*
X111761905Y-56112557D01*
X111761905Y-56112557D02*
X111714286Y-56207795D01*
X111714286Y-56207795D02*
X111714286Y-56445890D01*
X111714286Y-56445890D02*
X111761905Y-56541128D01*
X111761905Y-56541128D02*
X111809524Y-56588747D01*
X111809524Y-56588747D02*
X111904762Y-56636366D01*
X111904762Y-56636366D02*
X112095238Y-56636366D01*
X112095238Y-56636366D02*
X112190476Y-56588747D01*
X112190476Y-56588747D02*
X112238095Y-56541128D01*
X112238095Y-56541128D02*
X112285714Y-56445890D01*
X132238095Y-82954819D02*
X132238095Y-83764342D01*
X132238095Y-83764342D02*
X132285714Y-83859580D01*
X132285714Y-83859580D02*
X132333333Y-83907200D01*
X132333333Y-83907200D02*
X132428571Y-83954819D01*
X132428571Y-83954819D02*
X132619047Y-83954819D01*
X132619047Y-83954819D02*
X132714285Y-83907200D01*
X132714285Y-83907200D02*
X132761904Y-83859580D01*
X132761904Y-83859580D02*
X132809523Y-83764342D01*
X132809523Y-83764342D02*
X132809523Y-82954819D01*
X133238095Y-83050057D02*
X133285714Y-83002438D01*
X133285714Y-83002438D02*
X133380952Y-82954819D01*
X133380952Y-82954819D02*
X133619047Y-82954819D01*
X133619047Y-82954819D02*
X133714285Y-83002438D01*
X133714285Y-83002438D02*
X133761904Y-83050057D01*
X133761904Y-83050057D02*
X133809523Y-83145295D01*
X133809523Y-83145295D02*
X133809523Y-83240533D01*
X133809523Y-83240533D02*
X133761904Y-83383390D01*
X133761904Y-83383390D02*
X133190476Y-83954819D01*
X133190476Y-83954819D02*
X133809523Y-83954819D01*
X145583333Y-85109580D02*
X145535714Y-85157200D01*
X145535714Y-85157200D02*
X145392857Y-85204819D01*
X145392857Y-85204819D02*
X145297619Y-85204819D01*
X145297619Y-85204819D02*
X145154762Y-85157200D01*
X145154762Y-85157200D02*
X145059524Y-85061961D01*
X145059524Y-85061961D02*
X145011905Y-84966723D01*
X145011905Y-84966723D02*
X144964286Y-84776247D01*
X144964286Y-84776247D02*
X144964286Y-84633390D01*
X144964286Y-84633390D02*
X145011905Y-84442914D01*
X145011905Y-84442914D02*
X145059524Y-84347676D01*
X145059524Y-84347676D02*
X145154762Y-84252438D01*
X145154762Y-84252438D02*
X145297619Y-84204819D01*
X145297619Y-84204819D02*
X145392857Y-84204819D01*
X145392857Y-84204819D02*
X145535714Y-84252438D01*
X145535714Y-84252438D02*
X145583333Y-84300057D01*
X145964286Y-84300057D02*
X146011905Y-84252438D01*
X146011905Y-84252438D02*
X146107143Y-84204819D01*
X146107143Y-84204819D02*
X146345238Y-84204819D01*
X146345238Y-84204819D02*
X146440476Y-84252438D01*
X146440476Y-84252438D02*
X146488095Y-84300057D01*
X146488095Y-84300057D02*
X146535714Y-84395295D01*
X146535714Y-84395295D02*
X146535714Y-84490533D01*
X146535714Y-84490533D02*
X146488095Y-84633390D01*
X146488095Y-84633390D02*
X145916667Y-85204819D01*
X145916667Y-85204819D02*
X146535714Y-85204819D01*
X139833333Y-93954819D02*
X139500000Y-93478628D01*
X139261905Y-93954819D02*
X139261905Y-92954819D01*
X139261905Y-92954819D02*
X139642857Y-92954819D01*
X139642857Y-92954819D02*
X139738095Y-93002438D01*
X139738095Y-93002438D02*
X139785714Y-93050057D01*
X139785714Y-93050057D02*
X139833333Y-93145295D01*
X139833333Y-93145295D02*
X139833333Y-93288152D01*
X139833333Y-93288152D02*
X139785714Y-93383390D01*
X139785714Y-93383390D02*
X139738095Y-93431009D01*
X139738095Y-93431009D02*
X139642857Y-93478628D01*
X139642857Y-93478628D02*
X139261905Y-93478628D01*
X140166667Y-92954819D02*
X140785714Y-92954819D01*
X140785714Y-92954819D02*
X140452381Y-93335771D01*
X140452381Y-93335771D02*
X140595238Y-93335771D01*
X140595238Y-93335771D02*
X140690476Y-93383390D01*
X140690476Y-93383390D02*
X140738095Y-93431009D01*
X140738095Y-93431009D02*
X140785714Y-93526247D01*
X140785714Y-93526247D02*
X140785714Y-93764342D01*
X140785714Y-93764342D02*
X140738095Y-93859580D01*
X140738095Y-93859580D02*
X140690476Y-93907200D01*
X140690476Y-93907200D02*
X140595238Y-93954819D01*
X140595238Y-93954819D02*
X140309524Y-93954819D01*
X140309524Y-93954819D02*
X140214286Y-93907200D01*
X140214286Y-93907200D02*
X140166667Y-93859580D01*
D12*
X130857776Y-94427500D02*
X131367224Y-94427500D01*
X130857776Y-95472500D02*
X131367224Y-95472500D01*
X101120000Y-81620000D02*
X102500000Y-81620000D01*
X101120000Y-83000000D02*
X101120000Y-81620000D01*
X101120000Y-84270000D02*
X101120000Y-86920000D01*
X101120000Y-84270000D02*
X103880000Y-84270000D01*
X101120000Y-86920000D02*
X103880000Y-86920000D01*
X103880000Y-84270000D02*
X103880000Y-86920000D01*
X105140000Y-51954165D02*
X105140000Y-52185835D01*
X105860000Y-51954165D02*
X105860000Y-52185835D01*
X142767621Y-91220000D02*
X142432379Y-91220000D01*
X142767621Y-91980000D02*
X142432379Y-91980000D01*
X108090000Y-52788748D02*
X108090000Y-54211252D01*
X109910000Y-52788748D02*
X109910000Y-54211252D01*
X124145000Y-59809879D02*
X124145000Y-60145121D01*
X124905000Y-59809879D02*
X124905000Y-60145121D01*
X142891248Y-89090000D02*
X143413752Y-89090000D01*
X142891248Y-90560000D02*
X143413752Y-90560000D01*
X132880000Y-80125000D02*
X132880000Y-80395000D01*
X132880000Y-87025000D02*
X132880000Y-86755000D01*
X139300000Y-80125000D02*
X132880000Y-80125000D01*
X139300000Y-87025000D02*
X132880000Y-87025000D01*
X131150000Y-80435000D02*
X130810000Y-79965000D01*
X131490000Y-79965000D01*
X131150000Y-80435000D01*
G36*
X131150000Y-80435000D02*
G01*
X130810000Y-79965000D01*
X131490000Y-79965000D01*
X131150000Y-80435000D01*
G37*
X123525000Y-53815000D02*
X123525000Y-57825000D01*
X125525000Y-53815000D02*
X123525000Y-53815000D01*
X125525000Y-53815000D02*
X125525000Y-57825000D01*
X131421267Y-90190000D02*
X131128733Y-90190000D01*
X131421267Y-91210000D02*
X131128733Y-91210000D01*
X106490000Y-52491233D02*
X106490000Y-52783767D01*
X107510000Y-52491233D02*
X107510000Y-52783767D01*
X127575000Y-56505000D02*
X127845000Y-56505000D01*
X127575000Y-62925000D02*
X127575000Y-56505000D01*
X134475000Y-56505000D02*
X134205000Y-56505000D01*
X134475000Y-62925000D02*
X134475000Y-56505000D01*
X134635000Y-55115000D02*
X134165000Y-54775000D01*
X134635000Y-54435000D01*
X134635000Y-55115000D01*
G36*
X134635000Y-55115000D02*
G01*
X134165000Y-54775000D01*
X134635000Y-54435000D01*
X134635000Y-55115000D01*
G37*
X118800000Y-63550000D02*
X118800000Y-69970000D01*
X118800000Y-69970000D02*
X119070000Y-69970000D01*
X125700000Y-63550000D02*
X125700000Y-69970000D01*
X125700000Y-69970000D02*
X125430000Y-69970000D01*
X119110000Y-71700000D02*
X118640000Y-72040000D01*
X118640000Y-71360000D01*
X119110000Y-71700000D01*
G36*
X119110000Y-71700000D02*
G01*
X118640000Y-72040000D01*
X118640000Y-71360000D01*
X119110000Y-71700000D01*
G37*
X104950000Y-72000000D02*
X107750000Y-72000000D01*
X104950000Y-74000000D02*
X104950000Y-72000000D01*
X107750000Y-72000000D02*
X107750000Y-74000000D01*
X107750000Y-74000000D02*
X104950000Y-74000000D01*
X101120000Y-56380000D02*
X102500000Y-56380000D01*
X101120000Y-57760000D02*
X101120000Y-56380000D01*
X101120000Y-59030000D02*
X101120000Y-74380000D01*
X101120000Y-59030000D02*
X103880000Y-59030000D01*
X101120000Y-74380000D02*
X103880000Y-74380000D01*
X103880000Y-59030000D02*
X103880000Y-74380000D01*
X128540121Y-90320000D02*
X128204879Y-90320000D01*
X128540121Y-91080000D02*
X128204879Y-91080000D01*
X131252064Y-92215000D02*
X130797936Y-92215000D01*
X131252064Y-93685000D02*
X130797936Y-93685000D01*
X138351248Y-61590000D02*
X139773752Y-61590000D01*
X138351248Y-63410000D02*
X139773752Y-63410000D01*
X110590000Y-52788748D02*
X110590000Y-54211252D01*
X112410000Y-52788748D02*
X112410000Y-54211252D01*
X137225000Y-87490000D02*
X135275000Y-87490000D01*
X137225000Y-87490000D02*
X139175000Y-87490000D01*
X137225000Y-92610000D02*
X135275000Y-92610000D01*
X137225000Y-92610000D02*
X139175000Y-92610000D01*
X134525000Y-87585000D02*
X134285000Y-87255000D01*
X134765000Y-87255000D01*
X134525000Y-87585000D01*
G36*
X134525000Y-87585000D02*
G01*
X134285000Y-87255000D01*
X134765000Y-87255000D01*
X134525000Y-87585000D01*
G37*
X142840000Y-85461252D02*
X142840000Y-84038748D01*
X144660000Y-85461252D02*
X144660000Y-84038748D01*
X141417500Y-93657776D02*
X141417500Y-94167224D01*
X142462500Y-93657776D02*
X142462500Y-94167224D01*
M02*
