G04 #@! TF.GenerationSoftware,KiCad,Pcbnew,9.0.4*
G04 #@! TF.CreationDate,2025-09-01T18:14:32-04:00*
G04 #@! TF.ProjectId,power_supply_hat,706f7765-725f-4737-9570-706c795f6861,rev?*
G04 #@! TF.SameCoordinates,Original*
G04 #@! TF.FileFunction,AssemblyDrawing,Bot*
%FSLAX46Y46*%
G04 Gerber Fmt 4.6, Leading zero omitted, Abs format (unit mm)*
G04 Created by KiCad (PCBNEW 9.0.4) date 2025-09-01 18:14:32*
%MOMM*%
%LPD*%
G01*
G04 APERTURE LIST*
%ADD10C,0.150000*%
%ADD11C,0.100000*%
G04 APERTURE END LIST*
D10*
X133499999Y-42502438D02*
X133595237Y-42454819D01*
X133595237Y-42454819D02*
X133738094Y-42454819D01*
X133738094Y-42454819D02*
X133880951Y-42502438D01*
X133880951Y-42502438D02*
X133976189Y-42597676D01*
X133976189Y-42597676D02*
X134023808Y-42692914D01*
X134023808Y-42692914D02*
X134071427Y-42883390D01*
X134071427Y-42883390D02*
X134071427Y-43026247D01*
X134071427Y-43026247D02*
X134023808Y-43216723D01*
X134023808Y-43216723D02*
X133976189Y-43311961D01*
X133976189Y-43311961D02*
X133880951Y-43407200D01*
X133880951Y-43407200D02*
X133738094Y-43454819D01*
X133738094Y-43454819D02*
X133642856Y-43454819D01*
X133642856Y-43454819D02*
X133499999Y-43407200D01*
X133499999Y-43407200D02*
X133452380Y-43359580D01*
X133452380Y-43359580D02*
X133452380Y-43026247D01*
X133452380Y-43026247D02*
X133642856Y-43026247D01*
X133023808Y-43454819D02*
X133023808Y-42454819D01*
X133023808Y-42454819D02*
X132642856Y-42454819D01*
X132642856Y-42454819D02*
X132547618Y-42502438D01*
X132547618Y-42502438D02*
X132499999Y-42550057D01*
X132499999Y-42550057D02*
X132452380Y-42645295D01*
X132452380Y-42645295D02*
X132452380Y-42788152D01*
X132452380Y-42788152D02*
X132499999Y-42883390D01*
X132499999Y-42883390D02*
X132547618Y-42931009D01*
X132547618Y-42931009D02*
X132642856Y-42978628D01*
X132642856Y-42978628D02*
X133023808Y-42978628D01*
X132023808Y-43454819D02*
X132023808Y-42454819D01*
X131357142Y-42454819D02*
X131166666Y-42454819D01*
X131166666Y-42454819D02*
X131071428Y-42502438D01*
X131071428Y-42502438D02*
X130976190Y-42597676D01*
X130976190Y-42597676D02*
X130928571Y-42788152D01*
X130928571Y-42788152D02*
X130928571Y-43121485D01*
X130928571Y-43121485D02*
X130976190Y-43311961D01*
X130976190Y-43311961D02*
X131071428Y-43407200D01*
X131071428Y-43407200D02*
X131166666Y-43454819D01*
X131166666Y-43454819D02*
X131357142Y-43454819D01*
X131357142Y-43454819D02*
X131452380Y-43407200D01*
X131452380Y-43407200D02*
X131547618Y-43311961D01*
X131547618Y-43311961D02*
X131595237Y-43121485D01*
X131595237Y-43121485D02*
X131595237Y-42788152D01*
X131595237Y-42788152D02*
X131547618Y-42597676D01*
X131547618Y-42597676D02*
X131452380Y-42502438D01*
X131452380Y-42502438D02*
X131357142Y-42454819D01*
X132833333Y-46954819D02*
X132833333Y-47669104D01*
X132833333Y-47669104D02*
X132880952Y-47811961D01*
X132880952Y-47811961D02*
X132976190Y-47907200D01*
X132976190Y-47907200D02*
X133119047Y-47954819D01*
X133119047Y-47954819D02*
X133214285Y-47954819D01*
X131833333Y-47954819D02*
X132404761Y-47954819D01*
X132119047Y-47954819D02*
X132119047Y-46954819D01*
X132119047Y-46954819D02*
X132214285Y-47097676D01*
X132214285Y-47097676D02*
X132309523Y-47192914D01*
X132309523Y-47192914D02*
X132404761Y-47240533D01*
D11*
X107100000Y-44960000D02*
X107100000Y-49040000D01*
X107100000Y-49040000D02*
X108100000Y-50040000D01*
X108100000Y-50040000D02*
X157900000Y-50040000D01*
X157900000Y-44960000D02*
X107100000Y-44960000D01*
X157900000Y-50040000D02*
X157900000Y-44960000D01*
M02*
