G04 #@! TF.GenerationSoftware,KiCad,Pcbnew,9.0.4*
G04 #@! TF.CreationDate,2025-09-01T18:14:39-04:00*
G04 #@! TF.ProjectId,power_supply_hat,706f7765-725f-4737-9570-706c795f6861,rev?*
G04 #@! TF.SameCoordinates,Original*
G04 #@! TF.FileFunction,Paste,Top*
G04 #@! TF.FilePolarity,Positive*
%FSLAX46Y46*%
G04 Gerber Fmt 4.6, Leading zero omitted, Abs format (unit mm)*
G04 Created by KiCad (PCBNEW 9.0.4) date 2025-09-01 18:14:39*
%MOMM*%
%LPD*%
G01*
G04 APERTURE LIST*
G04 Aperture macros list*
%AMRoundRect*
0 Rectangle with rounded corners*
0 $1 Rounding radius*
0 $2 $3 $4 $5 $6 $7 $8 $9 X,Y pos of 4 corners*
0 Add a 4 corners polygon primitive as box body*
4,1,4,$2,$3,$4,$5,$6,$7,$8,$9,$2,$3,0*
0 Add four circle primitives for the rounded corners*
1,1,$1+$1,$2,$3*
1,1,$1+$1,$4,$5*
1,1,$1+$1,$6,$7*
1,1,$1+$1,$8,$9*
0 Add four rect primitives between the rounded corners*
20,1,$1+$1,$2,$3,$4,$5,0*
20,1,$1+$1,$4,$5,$6,$7,0*
20,1,$1+$1,$6,$7,$8,$9,0*
20,1,$1+$1,$8,$9,$2,$3,0*%
G04 Aperture macros list end*
%ADD10RoundRect,0.237500X-0.250000X-0.237500X0.250000X-0.237500X0.250000X0.237500X-0.250000X0.237500X0*%
%ADD11RoundRect,0.155000X-0.155000X0.212500X-0.155000X-0.212500X0.155000X-0.212500X0.155000X0.212500X0*%
%ADD12RoundRect,0.160000X0.197500X0.160000X-0.197500X0.160000X-0.197500X-0.160000X0.197500X-0.160000X0*%
%ADD13RoundRect,0.250000X-0.650000X0.412500X-0.650000X-0.412500X0.650000X-0.412500X0.650000X0.412500X0*%
%ADD14RoundRect,0.160000X-0.160000X0.197500X-0.160000X-0.197500X0.160000X-0.197500X0.160000X0.197500X0*%
%ADD15RoundRect,0.250000X-0.337500X-0.475000X0.337500X-0.475000X0.337500X0.475000X-0.337500X0.475000X0*%
%ADD16RoundRect,0.250000X-1.275000X-1.125000X1.275000X-1.125000X1.275000X1.125000X-1.275000X1.125000X0*%
%ADD17RoundRect,0.250000X-0.850000X-0.350000X0.850000X-0.350000X0.850000X0.350000X-0.850000X0.350000X0*%
%ADD18RoundRect,0.225000X-0.375000X0.225000X-0.375000X-0.225000X0.375000X-0.225000X0.375000X0.225000X0*%
%ADD19RoundRect,0.237500X0.300000X0.237500X-0.300000X0.237500X-0.300000X-0.237500X0.300000X-0.237500X0*%
%ADD20R,5.500000X3.250000*%
%ADD21RoundRect,0.237500X-0.237500X0.300000X-0.237500X-0.300000X0.237500X-0.300000X0.237500X0.300000X0*%
%ADD22RoundRect,0.250000X-1.125000X1.275000X-1.125000X-1.275000X1.125000X-1.275000X1.125000X1.275000X0*%
%ADD23RoundRect,0.250000X-0.350000X0.850000X-0.350000X-0.850000X0.350000X-0.850000X0.350000X0.850000X0*%
%ADD24RoundRect,0.250000X1.125000X-1.275000X1.125000X1.275000X-1.125000X1.275000X-1.125000X-1.275000X0*%
%ADD25RoundRect,0.250000X0.350000X-0.850000X0.350000X0.850000X-0.350000X0.850000X-0.350000X-0.850000X0*%
%ADD26RoundRect,0.250000X0.350000X0.450000X-0.350000X0.450000X-0.350000X-0.450000X0.350000X-0.450000X0*%
%ADD27RoundRect,0.250000X-0.412500X-0.650000X0.412500X-0.650000X0.412500X0.650000X-0.412500X0.650000X0*%
%ADD28RoundRect,0.242500X-0.242500X-0.402500X0.242500X-0.402500X0.242500X0.402500X-0.242500X0.402500X0*%
%ADD29RoundRect,0.150000X-0.650000X-0.150000X0.650000X-0.150000X0.650000X0.150000X-0.650000X0.150000X0*%
%ADD30RoundRect,0.250000X0.650000X-0.412500X0.650000X0.412500X-0.650000X0.412500X-0.650000X-0.412500X0*%
%ADD31RoundRect,0.237500X-0.237500X0.250000X-0.237500X-0.250000X0.237500X-0.250000X0.237500X0.250000X0*%
G04 APERTURE END LIST*
D10*
X130200000Y-94950000D03*
X132025000Y-94950000D03*
D11*
X105500000Y-51502500D03*
X105500000Y-52637500D03*
D12*
X143197500Y-91600000D03*
X142002500Y-91600000D03*
D13*
X109000000Y-51937500D03*
X109000000Y-55062500D03*
D14*
X124525000Y-59380000D03*
X124525000Y-60575000D03*
D15*
X142115000Y-89825000D03*
X144190000Y-89825000D03*
D16*
X135775000Y-82050000D03*
X135775000Y-85100000D03*
X139125000Y-82050000D03*
X139125000Y-85100000D03*
D17*
X131150000Y-81295000D03*
X131150000Y-85855000D03*
D18*
X124525000Y-54525000D03*
X124525000Y-57825000D03*
D19*
X132137500Y-90700000D03*
X130412500Y-90700000D03*
D20*
X131025000Y-77825000D03*
X131025000Y-66575000D03*
D21*
X107000000Y-51775000D03*
X107000000Y-53500000D03*
D22*
X132550000Y-59400000D03*
X129500000Y-59400000D03*
X132550000Y-62750000D03*
X129500000Y-62750000D03*
D23*
X133305000Y-54775000D03*
X128745000Y-54775000D03*
D24*
X120725000Y-67075000D03*
X123775000Y-67075000D03*
X120725000Y-63725000D03*
X123775000Y-63725000D03*
D25*
X119970000Y-71700000D03*
X124530000Y-71700000D03*
D12*
X128970000Y-90700000D03*
X127775000Y-90700000D03*
D26*
X132025000Y-92950000D03*
X130025000Y-92950000D03*
D27*
X134887500Y-66575000D03*
X138012500Y-66575000D03*
D13*
X111500000Y-51937500D03*
X111500000Y-55062500D03*
D28*
X136625000Y-89250000D03*
X136625000Y-90850000D03*
X137825000Y-89250000D03*
X137825000Y-90850000D03*
D29*
X134575000Y-88145000D03*
X134575000Y-89415000D03*
X134575000Y-90685000D03*
X134575000Y-91955000D03*
X139875000Y-91955000D03*
X139875000Y-90685000D03*
X139875000Y-89415000D03*
X139875000Y-88145000D03*
D30*
X143750000Y-86312500D03*
X143750000Y-83187500D03*
D31*
X141940000Y-93000000D03*
X141940000Y-94825000D03*
M02*
