M48
; DRILL file {KiCad 9.0.4} date 2025-08-31T17:03:08-0400
; FORMAT={-:-/ absolute / metric / decimal}
; #@! TF.CreationDate,2025-08-31T17:03:08-04:00
; #@! TF.GenerationSoftware,Kicad,Pcbnew,9.0.4
; #@! TF.FileFunction,Plated,1,2,PTH
FMAT,2
METRIC
; #@! TA.AperFunction,Plated,PTH,ViaDrill
T1C0.300
; #@! TA.AperFunction,Plated,PTH,ComponentDrill
T2C1.000
%
G90
G05
T1
X146.0Y-97.5
X146.5Y-104.0
X147.0Y-95.5
X147.067Y-100.932
X148.0Y-104.0
X148.25Y-109.65
X148.5Y-106.5
X148.5Y-108.25
X148.5Y-111.75
X148.562Y-112.548
X149.75Y-90.362
X151.25Y-105.0
X151.75Y-97.25
X152.299Y-103.701
X152.65Y-108.0
X152.75Y-109.0
X153.75Y-102.5
X155.5Y-104.75
X157.5Y-109.75
T2
X137.5Y-92.92
X137.5Y-95.46
X137.5Y-98.0
X137.5Y-100.54
X137.5Y-103.08
X137.5Y-105.62
X137.5Y-108.16
M30
