M48
; DRILL file {KiCad 9.0.6} date 2025-11-02T14:54:41-0500
; FORMAT={-:-/ absolute / metric / decimal}
; #@! TF.CreationDate,2025-11-02T14:54:41-05:00
; #@! TF.GenerationSoftware,Kicad,Pcbnew,9.0.6
; #@! TF.FileFunction,Plated,1,2,PTH
FMAT,2
METRIC
; #@! TA.AperFunction,Plated,PTH,ViaDrill
T1C0.300
; #@! TA.AperFunction,Plated,PTH,ComponentDrill
T2C1.000
%
G90
G05
T1
X141.0Y-100.1
X142.5Y-96.0
X143.5Y-92.5
X144.0Y-86.5
X147.043Y-103.457
X150.0Y-91.0
X150.5Y-94.0
X150.5Y-99.5
X150.681Y-104.319
X151.1Y-102.0
X153.5Y-100.5
X153.5Y-103.0
X153.5Y-103.0
X154.5Y-104.0
X157.0Y-95.5
X157.0Y-101.1
X157.4Y-104.612
X157.5Y-91.0
X158.9Y-103.112
X159.0Y-98.0
T2
X138.0Y-89.96
X138.0Y-92.5
X138.0Y-95.04
X138.0Y-97.58
X138.0Y-100.12
X138.0Y-102.66
X138.0Y-105.2
M30
