%TF.GenerationSoftware,KiCad,Pcbnew,9.0.5*%
%TF.CreationDate,2025-10-10T13:47:40-04:00*%
%TF.ProjectId,IMU,494d552e-6b69-4636-9164-5f7063625858,0.2*%
%TF.SameCoordinates,Original*%
%TF.FileFunction,Legend,Top*%
%TF.FilePolarity,Positive*%
%FSLAX46Y46*%
G04 Gerber Fmt 4.6, Leading zero omitted, Abs format (unit mm)*
G04 Created by KiCad (PCBNEW 9.0.5) date 2025-10-10 13:47:40*
%MOMM*%
%LPD*%
G01*
G04 APERTURE LIST*
%ADD10C,0.187500*%
%ADD11C,0.300000*%
%ADD12C,0.150000*%
%ADD13C,0.120000*%
G04 APERTURE END LIST*
D10*
X139409069Y-98735250D02*
X139623355Y-98806678D01*
X139623355Y-98806678D02*
X139980497Y-98806678D01*
X139980497Y-98806678D02*
X140123355Y-98735250D01*
X140123355Y-98735250D02*
X140194783Y-98663821D01*
X140194783Y-98663821D02*
X140266212Y-98520964D01*
X140266212Y-98520964D02*
X140266212Y-98378107D01*
X140266212Y-98378107D02*
X140194783Y-98235250D01*
X140194783Y-98235250D02*
X140123355Y-98163821D01*
X140123355Y-98163821D02*
X139980497Y-98092392D01*
X139980497Y-98092392D02*
X139694783Y-98020964D01*
X139694783Y-98020964D02*
X139551926Y-97949535D01*
X139551926Y-97949535D02*
X139480497Y-97878107D01*
X139480497Y-97878107D02*
X139409069Y-97735250D01*
X139409069Y-97735250D02*
X139409069Y-97592392D01*
X139409069Y-97592392D02*
X139480497Y-97449535D01*
X139480497Y-97449535D02*
X139551926Y-97378107D01*
X139551926Y-97378107D02*
X139694783Y-97306678D01*
X139694783Y-97306678D02*
X140051926Y-97306678D01*
X140051926Y-97306678D02*
X140266212Y-97378107D01*
X140909068Y-98806678D02*
X140909068Y-97306678D01*
X140909068Y-97306678D02*
X141266211Y-97306678D01*
X141266211Y-97306678D02*
X141480497Y-97378107D01*
X141480497Y-97378107D02*
X141623354Y-97520964D01*
X141623354Y-97520964D02*
X141694783Y-97663821D01*
X141694783Y-97663821D02*
X141766211Y-97949535D01*
X141766211Y-97949535D02*
X141766211Y-98163821D01*
X141766211Y-98163821D02*
X141694783Y-98449535D01*
X141694783Y-98449535D02*
X141623354Y-98592392D01*
X141623354Y-98592392D02*
X141480497Y-98735250D01*
X141480497Y-98735250D02*
X141266211Y-98806678D01*
X141266211Y-98806678D02*
X140909068Y-98806678D01*
X142337640Y-98378107D02*
X143051926Y-98378107D01*
X142194783Y-98806678D02*
X142694783Y-97306678D01*
X142694783Y-97306678D02*
X143194783Y-98806678D01*
X140480497Y-108020964D02*
X139980497Y-108020964D01*
X139980497Y-108806678D02*
X139980497Y-107306678D01*
X139980497Y-107306678D02*
X140694783Y-107306678D01*
X141194783Y-108735250D02*
X141409069Y-108806678D01*
X141409069Y-108806678D02*
X141766211Y-108806678D01*
X141766211Y-108806678D02*
X141909069Y-108735250D01*
X141909069Y-108735250D02*
X141980497Y-108663821D01*
X141980497Y-108663821D02*
X142051926Y-108520964D01*
X142051926Y-108520964D02*
X142051926Y-108378107D01*
X142051926Y-108378107D02*
X141980497Y-108235250D01*
X141980497Y-108235250D02*
X141909069Y-108163821D01*
X141909069Y-108163821D02*
X141766211Y-108092392D01*
X141766211Y-108092392D02*
X141480497Y-108020964D01*
X141480497Y-108020964D02*
X141337640Y-107949535D01*
X141337640Y-107949535D02*
X141266211Y-107878107D01*
X141266211Y-107878107D02*
X141194783Y-107735250D01*
X141194783Y-107735250D02*
X141194783Y-107592392D01*
X141194783Y-107592392D02*
X141266211Y-107449535D01*
X141266211Y-107449535D02*
X141337640Y-107378107D01*
X141337640Y-107378107D02*
X141480497Y-107306678D01*
X141480497Y-107306678D02*
X141837640Y-107306678D01*
X141837640Y-107306678D02*
X142051926Y-107378107D01*
X142980497Y-108092392D02*
X142980497Y-108806678D01*
X142480497Y-107306678D02*
X142980497Y-108092392D01*
X142980497Y-108092392D02*
X143480497Y-107306678D01*
X143980496Y-108806678D02*
X143980496Y-107306678D01*
X143980496Y-107306678D02*
X144837639Y-108806678D01*
X144837639Y-108806678D02*
X144837639Y-107306678D01*
X146409068Y-108663821D02*
X146337640Y-108735250D01*
X146337640Y-108735250D02*
X146123354Y-108806678D01*
X146123354Y-108806678D02*
X145980497Y-108806678D01*
X145980497Y-108806678D02*
X145766211Y-108735250D01*
X145766211Y-108735250D02*
X145623354Y-108592392D01*
X145623354Y-108592392D02*
X145551925Y-108449535D01*
X145551925Y-108449535D02*
X145480497Y-108163821D01*
X145480497Y-108163821D02*
X145480497Y-107949535D01*
X145480497Y-107949535D02*
X145551925Y-107663821D01*
X145551925Y-107663821D02*
X145623354Y-107520964D01*
X145623354Y-107520964D02*
X145766211Y-107378107D01*
X145766211Y-107378107D02*
X145980497Y-107306678D01*
X145980497Y-107306678D02*
X146123354Y-107306678D01*
X146123354Y-107306678D02*
X146337640Y-107378107D01*
X146337640Y-107378107D02*
X146409068Y-107449535D01*
X139980497Y-106306678D02*
X139980497Y-104806678D01*
X140694783Y-106306678D02*
X140694783Y-104806678D01*
X140694783Y-104806678D02*
X141551926Y-106306678D01*
X141551926Y-106306678D02*
X141551926Y-104806678D01*
X142051927Y-104806678D02*
X142909070Y-104806678D01*
X142480498Y-106306678D02*
X142480498Y-104806678D01*
X144480498Y-104949535D02*
X144551926Y-104878107D01*
X144551926Y-104878107D02*
X144694784Y-104806678D01*
X144694784Y-104806678D02*
X145051926Y-104806678D01*
X145051926Y-104806678D02*
X145194784Y-104878107D01*
X145194784Y-104878107D02*
X145266212Y-104949535D01*
X145266212Y-104949535D02*
X145337641Y-105092392D01*
X145337641Y-105092392D02*
X145337641Y-105235250D01*
X145337641Y-105235250D02*
X145266212Y-105449535D01*
X145266212Y-105449535D02*
X144409069Y-106306678D01*
X144409069Y-106306678D02*
X145337641Y-106306678D01*
X140266212Y-94878107D02*
X140123355Y-94806678D01*
X140123355Y-94806678D02*
X139909069Y-94806678D01*
X139909069Y-94806678D02*
X139694783Y-94878107D01*
X139694783Y-94878107D02*
X139551926Y-95020964D01*
X139551926Y-95020964D02*
X139480497Y-95163821D01*
X139480497Y-95163821D02*
X139409069Y-95449535D01*
X139409069Y-95449535D02*
X139409069Y-95663821D01*
X139409069Y-95663821D02*
X139480497Y-95949535D01*
X139480497Y-95949535D02*
X139551926Y-96092392D01*
X139551926Y-96092392D02*
X139694783Y-96235250D01*
X139694783Y-96235250D02*
X139909069Y-96306678D01*
X139909069Y-96306678D02*
X140051926Y-96306678D01*
X140051926Y-96306678D02*
X140266212Y-96235250D01*
X140266212Y-96235250D02*
X140337640Y-96163821D01*
X140337640Y-96163821D02*
X140337640Y-95663821D01*
X140337640Y-95663821D02*
X140051926Y-95663821D01*
X140980497Y-96306678D02*
X140980497Y-94806678D01*
X140980497Y-94806678D02*
X141837640Y-96306678D01*
X141837640Y-96306678D02*
X141837640Y-94806678D01*
X142551926Y-96306678D02*
X142551926Y-94806678D01*
X142551926Y-94806678D02*
X142909069Y-94806678D01*
X142909069Y-94806678D02*
X143123355Y-94878107D01*
X143123355Y-94878107D02*
X143266212Y-95020964D01*
X143266212Y-95020964D02*
X143337641Y-95163821D01*
X143337641Y-95163821D02*
X143409069Y-95449535D01*
X143409069Y-95449535D02*
X143409069Y-95663821D01*
X143409069Y-95663821D02*
X143337641Y-95949535D01*
X143337641Y-95949535D02*
X143266212Y-96092392D01*
X143266212Y-96092392D02*
X143123355Y-96235250D01*
X143123355Y-96235250D02*
X142909069Y-96306678D01*
X142909069Y-96306678D02*
X142551926Y-96306678D01*
X139980497Y-103806678D02*
X139980497Y-102306678D01*
X140694783Y-103806678D02*
X140694783Y-102306678D01*
X140694783Y-102306678D02*
X141551926Y-103806678D01*
X141551926Y-103806678D02*
X141551926Y-102306678D01*
X142051927Y-102306678D02*
X142909070Y-102306678D01*
X142480498Y-103806678D02*
X142480498Y-102306678D01*
X145337641Y-103806678D02*
X144480498Y-103806678D01*
X144909069Y-103806678D02*
X144909069Y-102306678D01*
X144909069Y-102306678D02*
X144766212Y-102520964D01*
X144766212Y-102520964D02*
X144623355Y-102663821D01*
X144623355Y-102663821D02*
X144480498Y-102735250D01*
X139766212Y-91806678D02*
X140266212Y-93306678D01*
X140266212Y-93306678D02*
X140766212Y-91806678D01*
X142123354Y-93163821D02*
X142051926Y-93235250D01*
X142051926Y-93235250D02*
X141837640Y-93306678D01*
X141837640Y-93306678D02*
X141694783Y-93306678D01*
X141694783Y-93306678D02*
X141480497Y-93235250D01*
X141480497Y-93235250D02*
X141337640Y-93092392D01*
X141337640Y-93092392D02*
X141266211Y-92949535D01*
X141266211Y-92949535D02*
X141194783Y-92663821D01*
X141194783Y-92663821D02*
X141194783Y-92449535D01*
X141194783Y-92449535D02*
X141266211Y-92163821D01*
X141266211Y-92163821D02*
X141337640Y-92020964D01*
X141337640Y-92020964D02*
X141480497Y-91878107D01*
X141480497Y-91878107D02*
X141694783Y-91806678D01*
X141694783Y-91806678D02*
X141837640Y-91806678D01*
X141837640Y-91806678D02*
X142051926Y-91878107D01*
X142051926Y-91878107D02*
X142123354Y-91949535D01*
X143623354Y-93163821D02*
X143551926Y-93235250D01*
X143551926Y-93235250D02*
X143337640Y-93306678D01*
X143337640Y-93306678D02*
X143194783Y-93306678D01*
X143194783Y-93306678D02*
X142980497Y-93235250D01*
X142980497Y-93235250D02*
X142837640Y-93092392D01*
X142837640Y-93092392D02*
X142766211Y-92949535D01*
X142766211Y-92949535D02*
X142694783Y-92663821D01*
X142694783Y-92663821D02*
X142694783Y-92449535D01*
X142694783Y-92449535D02*
X142766211Y-92163821D01*
X142766211Y-92163821D02*
X142837640Y-92020964D01*
X142837640Y-92020964D02*
X142980497Y-91878107D01*
X142980497Y-91878107D02*
X143194783Y-91806678D01*
X143194783Y-91806678D02*
X143337640Y-91806678D01*
X143337640Y-91806678D02*
X143551926Y-91878107D01*
X143551926Y-91878107D02*
X143623354Y-91949535D01*
D11*
X145554510Y-83550828D02*
X145554510Y-82050828D01*
X146268796Y-83550828D02*
X146268796Y-82050828D01*
X146268796Y-82050828D02*
X146768796Y-83122257D01*
X146768796Y-83122257D02*
X147268796Y-82050828D01*
X147268796Y-82050828D02*
X147268796Y-83550828D01*
X147983082Y-82050828D02*
X147983082Y-83265114D01*
X147983082Y-83265114D02*
X148054511Y-83407971D01*
X148054511Y-83407971D02*
X148125940Y-83479400D01*
X148125940Y-83479400D02*
X148268797Y-83550828D01*
X148268797Y-83550828D02*
X148554511Y-83550828D01*
X148554511Y-83550828D02*
X148697368Y-83479400D01*
X148697368Y-83479400D02*
X148768797Y-83407971D01*
X148768797Y-83407971D02*
X148840225Y-83265114D01*
X148840225Y-83265114D02*
X148840225Y-82050828D01*
X150554511Y-82550828D02*
X150911654Y-83550828D01*
X150911654Y-83550828D02*
X151268797Y-82550828D01*
X152125940Y-82050828D02*
X152268797Y-82050828D01*
X152268797Y-82050828D02*
X152411654Y-82122257D01*
X152411654Y-82122257D02*
X152483083Y-82193685D01*
X152483083Y-82193685D02*
X152554511Y-82336542D01*
X152554511Y-82336542D02*
X152625940Y-82622257D01*
X152625940Y-82622257D02*
X152625940Y-82979400D01*
X152625940Y-82979400D02*
X152554511Y-83265114D01*
X152554511Y-83265114D02*
X152483083Y-83407971D01*
X152483083Y-83407971D02*
X152411654Y-83479400D01*
X152411654Y-83479400D02*
X152268797Y-83550828D01*
X152268797Y-83550828D02*
X152125940Y-83550828D01*
X152125940Y-83550828D02*
X151983083Y-83479400D01*
X151983083Y-83479400D02*
X151911654Y-83407971D01*
X151911654Y-83407971D02*
X151840225Y-83265114D01*
X151840225Y-83265114D02*
X151768797Y-82979400D01*
X151768797Y-82979400D02*
X151768797Y-82622257D01*
X151768797Y-82622257D02*
X151840225Y-82336542D01*
X151840225Y-82336542D02*
X151911654Y-82193685D01*
X151911654Y-82193685D02*
X151983083Y-82122257D01*
X151983083Y-82122257D02*
X152125940Y-82050828D01*
X153268796Y-83407971D02*
X153340225Y-83479400D01*
X153340225Y-83479400D02*
X153268796Y-83550828D01*
X153268796Y-83550828D02*
X153197368Y-83479400D01*
X153197368Y-83479400D02*
X153268796Y-83407971D01*
X153268796Y-83407971D02*
X153268796Y-83550828D01*
X154625940Y-82550828D02*
X154625940Y-83550828D01*
X154268797Y-81979400D02*
X153911654Y-83050828D01*
X153911654Y-83050828D02*
X154840225Y-83050828D01*
D10*
X139909069Y-101235250D02*
X140123355Y-101306678D01*
X140123355Y-101306678D02*
X140480497Y-101306678D01*
X140480497Y-101306678D02*
X140623355Y-101235250D01*
X140623355Y-101235250D02*
X140694783Y-101163821D01*
X140694783Y-101163821D02*
X140766212Y-101020964D01*
X140766212Y-101020964D02*
X140766212Y-100878107D01*
X140766212Y-100878107D02*
X140694783Y-100735250D01*
X140694783Y-100735250D02*
X140623355Y-100663821D01*
X140623355Y-100663821D02*
X140480497Y-100592392D01*
X140480497Y-100592392D02*
X140194783Y-100520964D01*
X140194783Y-100520964D02*
X140051926Y-100449535D01*
X140051926Y-100449535D02*
X139980497Y-100378107D01*
X139980497Y-100378107D02*
X139909069Y-100235250D01*
X139909069Y-100235250D02*
X139909069Y-100092392D01*
X139909069Y-100092392D02*
X139980497Y-99949535D01*
X139980497Y-99949535D02*
X140051926Y-99878107D01*
X140051926Y-99878107D02*
X140194783Y-99806678D01*
X140194783Y-99806678D02*
X140551926Y-99806678D01*
X140551926Y-99806678D02*
X140766212Y-99878107D01*
X142266211Y-101163821D02*
X142194783Y-101235250D01*
X142194783Y-101235250D02*
X141980497Y-101306678D01*
X141980497Y-101306678D02*
X141837640Y-101306678D01*
X141837640Y-101306678D02*
X141623354Y-101235250D01*
X141623354Y-101235250D02*
X141480497Y-101092392D01*
X141480497Y-101092392D02*
X141409068Y-100949535D01*
X141409068Y-100949535D02*
X141337640Y-100663821D01*
X141337640Y-100663821D02*
X141337640Y-100449535D01*
X141337640Y-100449535D02*
X141409068Y-100163821D01*
X141409068Y-100163821D02*
X141480497Y-100020964D01*
X141480497Y-100020964D02*
X141623354Y-99878107D01*
X141623354Y-99878107D02*
X141837640Y-99806678D01*
X141837640Y-99806678D02*
X141980497Y-99806678D01*
X141980497Y-99806678D02*
X142194783Y-99878107D01*
X142194783Y-99878107D02*
X142266211Y-99949535D01*
X143623354Y-101306678D02*
X142909068Y-101306678D01*
X142909068Y-101306678D02*
X142909068Y-99806678D01*
D12*
X150333333Y-105927080D02*
X150285714Y-105974700D01*
X150285714Y-105974700D02*
X150142857Y-106022319D01*
X150142857Y-106022319D02*
X150047619Y-106022319D01*
X150047619Y-106022319D02*
X149904762Y-105974700D01*
X149904762Y-105974700D02*
X149809524Y-105879461D01*
X149809524Y-105879461D02*
X149761905Y-105784223D01*
X149761905Y-105784223D02*
X149714286Y-105593747D01*
X149714286Y-105593747D02*
X149714286Y-105450890D01*
X149714286Y-105450890D02*
X149761905Y-105260414D01*
X149761905Y-105260414D02*
X149809524Y-105165176D01*
X149809524Y-105165176D02*
X149904762Y-105069938D01*
X149904762Y-105069938D02*
X150047619Y-105022319D01*
X150047619Y-105022319D02*
X150142857Y-105022319D01*
X150142857Y-105022319D02*
X150285714Y-105069938D01*
X150285714Y-105069938D02*
X150333333Y-105117557D01*
X150666667Y-105022319D02*
X151285714Y-105022319D01*
X151285714Y-105022319D02*
X150952381Y-105403271D01*
X150952381Y-105403271D02*
X151095238Y-105403271D01*
X151095238Y-105403271D02*
X151190476Y-105450890D01*
X151190476Y-105450890D02*
X151238095Y-105498509D01*
X151238095Y-105498509D02*
X151285714Y-105593747D01*
X151285714Y-105593747D02*
X151285714Y-105831842D01*
X151285714Y-105831842D02*
X151238095Y-105927080D01*
X151238095Y-105927080D02*
X151190476Y-105974700D01*
X151190476Y-105974700D02*
X151095238Y-106022319D01*
X151095238Y-106022319D02*
X150809524Y-106022319D01*
X150809524Y-106022319D02*
X150714286Y-105974700D01*
X150714286Y-105974700D02*
X150666667Y-105927080D01*
X157316666Y-105454819D02*
X157316666Y-106169104D01*
X157316666Y-106169104D02*
X157269047Y-106311961D01*
X157269047Y-106311961D02*
X157173809Y-106407200D01*
X157173809Y-106407200D02*
X157030952Y-106454819D01*
X157030952Y-106454819D02*
X156935714Y-106454819D01*
X157792857Y-106454819D02*
X157792857Y-105454819D01*
X157792857Y-105454819D02*
X158173809Y-105454819D01*
X158173809Y-105454819D02*
X158269047Y-105502438D01*
X158269047Y-105502438D02*
X158316666Y-105550057D01*
X158316666Y-105550057D02*
X158364285Y-105645295D01*
X158364285Y-105645295D02*
X158364285Y-105788152D01*
X158364285Y-105788152D02*
X158316666Y-105883390D01*
X158316666Y-105883390D02*
X158269047Y-105931009D01*
X158269047Y-105931009D02*
X158173809Y-105978628D01*
X158173809Y-105978628D02*
X157792857Y-105978628D01*
X159316666Y-106454819D02*
X158745238Y-106454819D01*
X159030952Y-106454819D02*
X159030952Y-105454819D01*
X159030952Y-105454819D02*
X158935714Y-105597676D01*
X158935714Y-105597676D02*
X158840476Y-105692914D01*
X158840476Y-105692914D02*
X158745238Y-105740533D01*
X145333333Y-99454819D02*
X145000000Y-98978628D01*
X144761905Y-99454819D02*
X144761905Y-98454819D01*
X144761905Y-98454819D02*
X145142857Y-98454819D01*
X145142857Y-98454819D02*
X145238095Y-98502438D01*
X145238095Y-98502438D02*
X145285714Y-98550057D01*
X145285714Y-98550057D02*
X145333333Y-98645295D01*
X145333333Y-98645295D02*
X145333333Y-98788152D01*
X145333333Y-98788152D02*
X145285714Y-98883390D01*
X145285714Y-98883390D02*
X145238095Y-98931009D01*
X145238095Y-98931009D02*
X145142857Y-98978628D01*
X145142857Y-98978628D02*
X144761905Y-98978628D01*
X146285714Y-99454819D02*
X145714286Y-99454819D01*
X146000000Y-99454819D02*
X146000000Y-98454819D01*
X146000000Y-98454819D02*
X145904762Y-98597676D01*
X145904762Y-98597676D02*
X145809524Y-98692914D01*
X145809524Y-98692914D02*
X145714286Y-98740533D01*
X151583333Y-107177080D02*
X151535714Y-107224700D01*
X151535714Y-107224700D02*
X151392857Y-107272319D01*
X151392857Y-107272319D02*
X151297619Y-107272319D01*
X151297619Y-107272319D02*
X151154762Y-107224700D01*
X151154762Y-107224700D02*
X151059524Y-107129461D01*
X151059524Y-107129461D02*
X151011905Y-107034223D01*
X151011905Y-107034223D02*
X150964286Y-106843747D01*
X150964286Y-106843747D02*
X150964286Y-106700890D01*
X150964286Y-106700890D02*
X151011905Y-106510414D01*
X151011905Y-106510414D02*
X151059524Y-106415176D01*
X151059524Y-106415176D02*
X151154762Y-106319938D01*
X151154762Y-106319938D02*
X151297619Y-106272319D01*
X151297619Y-106272319D02*
X151392857Y-106272319D01*
X151392857Y-106272319D02*
X151535714Y-106319938D01*
X151535714Y-106319938D02*
X151583333Y-106367557D01*
X151916667Y-106272319D02*
X152583333Y-106272319D01*
X152583333Y-106272319D02*
X152154762Y-107272319D01*
X137166666Y-89994819D02*
X137166666Y-90709104D01*
X137166666Y-90709104D02*
X137119047Y-90851961D01*
X137119047Y-90851961D02*
X137023809Y-90947200D01*
X137023809Y-90947200D02*
X136880952Y-90994819D01*
X136880952Y-90994819D02*
X136785714Y-90994819D01*
X138166666Y-90994819D02*
X137595238Y-90994819D01*
X137880952Y-90994819D02*
X137880952Y-89994819D01*
X137880952Y-89994819D02*
X137785714Y-90137676D01*
X137785714Y-90137676D02*
X137690476Y-90232914D01*
X137690476Y-90232914D02*
X137595238Y-90280533D01*
X148833333Y-105609580D02*
X148785714Y-105657200D01*
X148785714Y-105657200D02*
X148642857Y-105704819D01*
X148642857Y-105704819D02*
X148547619Y-105704819D01*
X148547619Y-105704819D02*
X148404762Y-105657200D01*
X148404762Y-105657200D02*
X148309524Y-105561961D01*
X148309524Y-105561961D02*
X148261905Y-105466723D01*
X148261905Y-105466723D02*
X148214286Y-105276247D01*
X148214286Y-105276247D02*
X148214286Y-105133390D01*
X148214286Y-105133390D02*
X148261905Y-104942914D01*
X148261905Y-104942914D02*
X148309524Y-104847676D01*
X148309524Y-104847676D02*
X148404762Y-104752438D01*
X148404762Y-104752438D02*
X148547619Y-104704819D01*
X148547619Y-104704819D02*
X148642857Y-104704819D01*
X148642857Y-104704819D02*
X148785714Y-104752438D01*
X148785714Y-104752438D02*
X148833333Y-104800057D01*
X149785714Y-105704819D02*
X149214286Y-105704819D01*
X149500000Y-105704819D02*
X149500000Y-104704819D01*
X149500000Y-104704819D02*
X149404762Y-104847676D01*
X149404762Y-104847676D02*
X149309524Y-104942914D01*
X149309524Y-104942914D02*
X149214286Y-104990533D01*
X152583333Y-87109580D02*
X152535714Y-87157200D01*
X152535714Y-87157200D02*
X152392857Y-87204819D01*
X152392857Y-87204819D02*
X152297619Y-87204819D01*
X152297619Y-87204819D02*
X152154762Y-87157200D01*
X152154762Y-87157200D02*
X152059524Y-87061961D01*
X152059524Y-87061961D02*
X152011905Y-86966723D01*
X152011905Y-86966723D02*
X151964286Y-86776247D01*
X151964286Y-86776247D02*
X151964286Y-86633390D01*
X151964286Y-86633390D02*
X152011905Y-86442914D01*
X152011905Y-86442914D02*
X152059524Y-86347676D01*
X152059524Y-86347676D02*
X152154762Y-86252438D01*
X152154762Y-86252438D02*
X152297619Y-86204819D01*
X152297619Y-86204819D02*
X152392857Y-86204819D01*
X152392857Y-86204819D02*
X152535714Y-86252438D01*
X152535714Y-86252438D02*
X152583333Y-86300057D01*
X153488095Y-86204819D02*
X153011905Y-86204819D01*
X153011905Y-86204819D02*
X152964286Y-86681009D01*
X152964286Y-86681009D02*
X153011905Y-86633390D01*
X153011905Y-86633390D02*
X153107143Y-86585771D01*
X153107143Y-86585771D02*
X153345238Y-86585771D01*
X153345238Y-86585771D02*
X153440476Y-86633390D01*
X153440476Y-86633390D02*
X153488095Y-86681009D01*
X153488095Y-86681009D02*
X153535714Y-86776247D01*
X153535714Y-86776247D02*
X153535714Y-87014342D01*
X153535714Y-87014342D02*
X153488095Y-87109580D01*
X153488095Y-87109580D02*
X153440476Y-87157200D01*
X153440476Y-87157200D02*
X153345238Y-87204819D01*
X153345238Y-87204819D02*
X153107143Y-87204819D01*
X153107143Y-87204819D02*
X153011905Y-87157200D01*
X153011905Y-87157200D02*
X152964286Y-87109580D01*
X147333333Y-97454819D02*
X147000000Y-96978628D01*
X146761905Y-97454819D02*
X146761905Y-96454819D01*
X146761905Y-96454819D02*
X147142857Y-96454819D01*
X147142857Y-96454819D02*
X147238095Y-96502438D01*
X147238095Y-96502438D02*
X147285714Y-96550057D01*
X147285714Y-96550057D02*
X147333333Y-96645295D01*
X147333333Y-96645295D02*
X147333333Y-96788152D01*
X147333333Y-96788152D02*
X147285714Y-96883390D01*
X147285714Y-96883390D02*
X147238095Y-96931009D01*
X147238095Y-96931009D02*
X147142857Y-96978628D01*
X147142857Y-96978628D02*
X146761905Y-96978628D01*
X147714286Y-96550057D02*
X147761905Y-96502438D01*
X147761905Y-96502438D02*
X147857143Y-96454819D01*
X147857143Y-96454819D02*
X148095238Y-96454819D01*
X148095238Y-96454819D02*
X148190476Y-96502438D01*
X148190476Y-96502438D02*
X148238095Y-96550057D01*
X148238095Y-96550057D02*
X148285714Y-96645295D01*
X148285714Y-96645295D02*
X148285714Y-96740533D01*
X148285714Y-96740533D02*
X148238095Y-96883390D01*
X148238095Y-96883390D02*
X147666667Y-97454819D01*
X147666667Y-97454819D02*
X148285714Y-97454819D01*
X149038095Y-86104819D02*
X149038095Y-86914342D01*
X149038095Y-86914342D02*
X149085714Y-87009580D01*
X149085714Y-87009580D02*
X149133333Y-87057200D01*
X149133333Y-87057200D02*
X149228571Y-87104819D01*
X149228571Y-87104819D02*
X149419047Y-87104819D01*
X149419047Y-87104819D02*
X149514285Y-87057200D01*
X149514285Y-87057200D02*
X149561904Y-87009580D01*
X149561904Y-87009580D02*
X149609523Y-86914342D01*
X149609523Y-86914342D02*
X149609523Y-86104819D01*
X149990476Y-86104819D02*
X150609523Y-86104819D01*
X150609523Y-86104819D02*
X150276190Y-86485771D01*
X150276190Y-86485771D02*
X150419047Y-86485771D01*
X150419047Y-86485771D02*
X150514285Y-86533390D01*
X150514285Y-86533390D02*
X150561904Y-86581009D01*
X150561904Y-86581009D02*
X150609523Y-86676247D01*
X150609523Y-86676247D02*
X150609523Y-86914342D01*
X150609523Y-86914342D02*
X150561904Y-87009580D01*
X150561904Y-87009580D02*
X150514285Y-87057200D01*
X150514285Y-87057200D02*
X150419047Y-87104819D01*
X150419047Y-87104819D02*
X150133333Y-87104819D01*
X150133333Y-87104819D02*
X150038095Y-87057200D01*
X150038095Y-87057200D02*
X149990476Y-87009580D01*
X149238095Y-107517319D02*
X149238095Y-108326842D01*
X149238095Y-108326842D02*
X149285714Y-108422080D01*
X149285714Y-108422080D02*
X149333333Y-108469700D01*
X149333333Y-108469700D02*
X149428571Y-108517319D01*
X149428571Y-108517319D02*
X149619047Y-108517319D01*
X149619047Y-108517319D02*
X149714285Y-108469700D01*
X149714285Y-108469700D02*
X149761904Y-108422080D01*
X149761904Y-108422080D02*
X149809523Y-108326842D01*
X149809523Y-108326842D02*
X149809523Y-107517319D01*
X150238095Y-107612557D02*
X150285714Y-107564938D01*
X150285714Y-107564938D02*
X150380952Y-107517319D01*
X150380952Y-107517319D02*
X150619047Y-107517319D01*
X150619047Y-107517319D02*
X150714285Y-107564938D01*
X150714285Y-107564938D02*
X150761904Y-107612557D01*
X150761904Y-107612557D02*
X150809523Y-107707795D01*
X150809523Y-107707795D02*
X150809523Y-107803033D01*
X150809523Y-107803033D02*
X150761904Y-107945890D01*
X150761904Y-107945890D02*
X150190476Y-108517319D01*
X150190476Y-108517319D02*
X150809523Y-108517319D01*
X147583333Y-112859580D02*
X147535714Y-112907200D01*
X147535714Y-112907200D02*
X147392857Y-112954819D01*
X147392857Y-112954819D02*
X147297619Y-112954819D01*
X147297619Y-112954819D02*
X147154762Y-112907200D01*
X147154762Y-112907200D02*
X147059524Y-112811961D01*
X147059524Y-112811961D02*
X147011905Y-112716723D01*
X147011905Y-112716723D02*
X146964286Y-112526247D01*
X146964286Y-112526247D02*
X146964286Y-112383390D01*
X146964286Y-112383390D02*
X147011905Y-112192914D01*
X147011905Y-112192914D02*
X147059524Y-112097676D01*
X147059524Y-112097676D02*
X147154762Y-112002438D01*
X147154762Y-112002438D02*
X147297619Y-111954819D01*
X147297619Y-111954819D02*
X147392857Y-111954819D01*
X147392857Y-111954819D02*
X147535714Y-112002438D01*
X147535714Y-112002438D02*
X147583333Y-112050057D01*
X147964286Y-112050057D02*
X148011905Y-112002438D01*
X148011905Y-112002438D02*
X148107143Y-111954819D01*
X148107143Y-111954819D02*
X148345238Y-111954819D01*
X148345238Y-111954819D02*
X148440476Y-112002438D01*
X148440476Y-112002438D02*
X148488095Y-112050057D01*
X148488095Y-112050057D02*
X148535714Y-112145295D01*
X148535714Y-112145295D02*
X148535714Y-112240533D01*
X148535714Y-112240533D02*
X148488095Y-112383390D01*
X148488095Y-112383390D02*
X147916667Y-112954819D01*
X147916667Y-112954819D02*
X148535714Y-112954819D01*
X154359580Y-102099166D02*
X154407200Y-102146785D01*
X154407200Y-102146785D02*
X154454819Y-102289642D01*
X154454819Y-102289642D02*
X154454819Y-102384880D01*
X154454819Y-102384880D02*
X154407200Y-102527737D01*
X154407200Y-102527737D02*
X154311961Y-102622975D01*
X154311961Y-102622975D02*
X154216723Y-102670594D01*
X154216723Y-102670594D02*
X154026247Y-102718213D01*
X154026247Y-102718213D02*
X153883390Y-102718213D01*
X153883390Y-102718213D02*
X153692914Y-102670594D01*
X153692914Y-102670594D02*
X153597676Y-102622975D01*
X153597676Y-102622975D02*
X153502438Y-102527737D01*
X153502438Y-102527737D02*
X153454819Y-102384880D01*
X153454819Y-102384880D02*
X153454819Y-102289642D01*
X153454819Y-102289642D02*
X153502438Y-102146785D01*
X153502438Y-102146785D02*
X153550057Y-102099166D01*
X153454819Y-101242023D02*
X153454819Y-101432499D01*
X153454819Y-101432499D02*
X153502438Y-101527737D01*
X153502438Y-101527737D02*
X153550057Y-101575356D01*
X153550057Y-101575356D02*
X153692914Y-101670594D01*
X153692914Y-101670594D02*
X153883390Y-101718213D01*
X153883390Y-101718213D02*
X154264342Y-101718213D01*
X154264342Y-101718213D02*
X154359580Y-101670594D01*
X154359580Y-101670594D02*
X154407200Y-101622975D01*
X154407200Y-101622975D02*
X154454819Y-101527737D01*
X154454819Y-101527737D02*
X154454819Y-101337261D01*
X154454819Y-101337261D02*
X154407200Y-101242023D01*
X154407200Y-101242023D02*
X154359580Y-101194404D01*
X154359580Y-101194404D02*
X154264342Y-101146785D01*
X154264342Y-101146785D02*
X154026247Y-101146785D01*
X154026247Y-101146785D02*
X153931009Y-101194404D01*
X153931009Y-101194404D02*
X153883390Y-101242023D01*
X153883390Y-101242023D02*
X153835771Y-101337261D01*
X153835771Y-101337261D02*
X153835771Y-101527737D01*
X153835771Y-101527737D02*
X153883390Y-101622975D01*
X153883390Y-101622975D02*
X153931009Y-101670594D01*
X153931009Y-101670594D02*
X154026247Y-101718213D01*
X149238095Y-96204819D02*
X149238095Y-97014342D01*
X149238095Y-97014342D02*
X149285714Y-97109580D01*
X149285714Y-97109580D02*
X149333333Y-97157200D01*
X149333333Y-97157200D02*
X149428571Y-97204819D01*
X149428571Y-97204819D02*
X149619047Y-97204819D01*
X149619047Y-97204819D02*
X149714285Y-97157200D01*
X149714285Y-97157200D02*
X149761904Y-97109580D01*
X149761904Y-97109580D02*
X149809523Y-97014342D01*
X149809523Y-97014342D02*
X149809523Y-96204819D01*
X150809523Y-97204819D02*
X150238095Y-97204819D01*
X150523809Y-97204819D02*
X150523809Y-96204819D01*
X150523809Y-96204819D02*
X150428571Y-96347676D01*
X150428571Y-96347676D02*
X150333333Y-96442914D01*
X150333333Y-96442914D02*
X150238095Y-96490533D01*
X146583333Y-87497080D02*
X146535714Y-87544700D01*
X146535714Y-87544700D02*
X146392857Y-87592319D01*
X146392857Y-87592319D02*
X146297619Y-87592319D01*
X146297619Y-87592319D02*
X146154762Y-87544700D01*
X146154762Y-87544700D02*
X146059524Y-87449461D01*
X146059524Y-87449461D02*
X146011905Y-87354223D01*
X146011905Y-87354223D02*
X145964286Y-87163747D01*
X145964286Y-87163747D02*
X145964286Y-87020890D01*
X145964286Y-87020890D02*
X146011905Y-86830414D01*
X146011905Y-86830414D02*
X146059524Y-86735176D01*
X146059524Y-86735176D02*
X146154762Y-86639938D01*
X146154762Y-86639938D02*
X146297619Y-86592319D01*
X146297619Y-86592319D02*
X146392857Y-86592319D01*
X146392857Y-86592319D02*
X146535714Y-86639938D01*
X146535714Y-86639938D02*
X146583333Y-86687557D01*
X147440476Y-86925652D02*
X147440476Y-87592319D01*
X147202381Y-86544700D02*
X146964286Y-87258985D01*
X146964286Y-87258985D02*
X147583333Y-87258985D01*
D13*
%TO.C,C3*%
X150140000Y-103634165D02*
X150140000Y-103865835D01*
X150860000Y-103634165D02*
X150860000Y-103865835D01*
%TO.C,JP1*%
X153600000Y-105000000D02*
X156400000Y-105000000D01*
X153600000Y-107000000D02*
X153600000Y-105000000D01*
X156400000Y-105000000D02*
X156400000Y-107000000D01*
X156400000Y-107000000D02*
X153600000Y-107000000D01*
%TO.C,R1*%
X143477500Y-96832776D02*
X143477500Y-97342224D01*
X144522500Y-96832776D02*
X144522500Y-97342224D01*
%TO.C,C7*%
X151390000Y-108451665D02*
X151390000Y-108683335D01*
X152110000Y-108451665D02*
X152110000Y-108683335D01*
%TO.C,J1*%
X136120000Y-91540000D02*
X137500000Y-91540000D01*
X136120000Y-92920000D02*
X136120000Y-91540000D01*
X136120000Y-94190000D02*
X136120000Y-109540000D01*
X136120000Y-94190000D02*
X138880000Y-94190000D01*
X136120000Y-109540000D02*
X138880000Y-109540000D01*
X138880000Y-94190000D02*
X138880000Y-109540000D01*
%TO.C,C1*%
X148640000Y-103316665D02*
X148640000Y-103548335D01*
X149360000Y-103316665D02*
X149360000Y-103548335D01*
%TO.C,C5*%
X152240000Y-88991233D02*
X152240000Y-89283767D01*
X153260000Y-88991233D02*
X153260000Y-89283767D01*
%TO.C,R2*%
X145477500Y-95332776D02*
X145477500Y-95842224D01*
X146522500Y-95332776D02*
X146522500Y-95842224D01*
%TO.C,U3*%
X149090000Y-87740000D02*
X150500000Y-87740000D01*
X149100000Y-90060000D02*
X150500000Y-90060000D01*
X148720000Y-87790000D02*
X148480000Y-87460000D01*
X148960000Y-87460000D01*
X148720000Y-87790000D01*
G36*
X148720000Y-87790000D02*
G01*
X148480000Y-87460000D01*
X148960000Y-87460000D01*
X148720000Y-87790000D01*
G37*
%TO.C,U2*%
X148880000Y-109327500D02*
X148880000Y-109132500D01*
X148890000Y-111122500D02*
X148890000Y-110697500D01*
X149065000Y-111122500D02*
X148890000Y-111122500D01*
X150935000Y-108902500D02*
X151110000Y-108902500D01*
X150935000Y-111122500D02*
X151110000Y-111122500D01*
X151110000Y-108902500D02*
X151110000Y-109327500D01*
X151110000Y-111122500D02*
X151110000Y-110697500D01*
X148880000Y-108892500D02*
X148740000Y-108702500D01*
X149020000Y-108702500D01*
X148880000Y-108892500D01*
G36*
X148880000Y-108892500D02*
G01*
X148740000Y-108702500D01*
X149020000Y-108702500D01*
X148880000Y-108892500D01*
G37*
%TO.C,C2*%
X148890000Y-112384165D02*
X148890000Y-112615835D01*
X149610000Y-112384165D02*
X149610000Y-112615835D01*
%TO.C,C6*%
X152390000Y-101816665D02*
X152390000Y-102048335D01*
X153110000Y-101816665D02*
X153110000Y-102048335D01*
%TO.C,U1*%
X148400000Y-101600000D02*
X148400000Y-101350000D01*
X148400000Y-101600000D02*
X148650000Y-101600000D01*
X151600000Y-98400000D02*
X151350000Y-98400000D01*
X151600000Y-98400000D02*
X151600000Y-98650000D01*
X151600000Y-101600000D02*
X151350000Y-101600000D01*
X151600000Y-101600000D02*
X151600000Y-101350000D01*
X148400000Y-98400000D02*
X148160000Y-98070000D01*
X148640000Y-98070000D01*
X148400000Y-98400000D01*
G36*
X148400000Y-98400000D02*
G01*
X148160000Y-98070000D01*
X148640000Y-98070000D01*
X148400000Y-98400000D01*
G37*
%TO.C,C4*%
X146240000Y-89353733D02*
X146240000Y-89646267D01*
X147260000Y-89353733D02*
X147260000Y-89646267D01*
%TD*%
M02*
