%TF.GenerationSoftware,KiCad,Pcbnew,9.0.6*%
%TF.CreationDate,2025-11-02T14:54:38-05:00*%
%TF.ProjectId,IMU,494d552e-6b69-4636-9164-5f7063625858,0.2*%
%TF.SameCoordinates,Original*%
%TF.FileFunction,Soldermask,Top*%
%TF.FilePolarity,Negative*%
%FSLAX46Y46*%
G04 Gerber Fmt 4.6, Leading zero omitted, Abs format (unit mm)*
G04 Created by KiCad (PCBNEW 9.0.6) date 2025-11-02 14:54:38*
%MOMM*%
%LPD*%
G01*
G04 APERTURE LIST*
G04 Aperture macros list*
%AMRoundRect*
0 Rectangle with rounded corners*
0 $1 Rounding radius*
0 $2 $3 $4 $5 $6 $7 $8 $9 X,Y pos of 4 corners*
0 Add a 4 corners polygon primitive as box body*
4,1,4,$2,$3,$4,$5,$6,$7,$8,$9,$2,$3,0*
0 Add four circle primitives for the rounded corners*
1,1,$1+$1,$2,$3*
1,1,$1+$1,$4,$5*
1,1,$1+$1,$6,$7*
1,1,$1+$1,$8,$9*
0 Add four rect primitives between the rounded corners*
20,1,$1+$1,$2,$3,$4,$5,0*
20,1,$1+$1,$4,$5,$6,$7,0*
20,1,$1+$1,$6,$7,$8,$9,0*
20,1,$1+$1,$8,$9,$2,$3,0*%
G04 Aperture macros list end*
%ADD10C,2.700000*%
%ADD11RoundRect,0.155000X-0.155000X0.212500X-0.155000X-0.212500X0.155000X-0.212500X0.155000X0.212500X0*%
%ADD12RoundRect,0.237500X-0.250000X-0.237500X0.250000X-0.237500X0.250000X0.237500X-0.250000X0.237500X0*%
%ADD13RoundRect,0.237500X-0.237500X0.300000X-0.237500X-0.300000X0.237500X-0.300000X0.237500X0.300000X0*%
%ADD14RoundRect,0.087500X-0.125000X-0.087500X0.125000X-0.087500X0.125000X0.087500X-0.125000X0.087500X0*%
%ADD15RoundRect,0.087500X-0.087500X-0.125000X0.087500X-0.125000X0.087500X0.125000X-0.087500X0.125000X0*%
%ADD16C,1.000000*%
%ADD17R,1.700000X1.700000*%
%ADD18C,1.700000*%
%ADD19R,1.000000X1.500000*%
%ADD20RoundRect,0.150000X0.150000X-0.587500X0.150000X0.587500X-0.150000X0.587500X-0.150000X-0.587500X0*%
%ADD21R,1.500000X1.000000*%
%ADD22RoundRect,0.155000X0.155000X-0.212500X0.155000X0.212500X-0.155000X0.212500X-0.155000X-0.212500X0*%
%ADD23RoundRect,0.100000X-0.225000X-0.100000X0.225000X-0.100000X0.225000X0.100000X-0.225000X0.100000X0*%
%ADD24RoundRect,0.050000X-0.225000X-0.050000X0.225000X-0.050000X0.225000X0.050000X-0.225000X0.050000X0*%
%ADD25RoundRect,0.050000X0.050000X-0.225000X0.050000X0.225000X-0.050000X0.225000X-0.050000X-0.225000X0*%
G04 APERTURE END LIST*
%TO.C,JP1*%
G36*
X159200000Y-103800000D02*
G01*
X159500000Y-103800000D01*
X159500000Y-105300000D01*
X159200000Y-105300000D01*
X159200000Y-103800000D01*
G37*
%TO.C,JP2*%
G36*
X145200000Y-87937500D02*
G01*
X146700000Y-87937500D01*
X146700000Y-86337500D01*
X145200000Y-86337500D01*
X145200000Y-87937500D01*
G37*
%TD*%
D10*
%TO.C,REF\u002A\u002A*%
X138000000Y-112000000D03*
%TD*%
D11*
%TO.C,C6*%
X159500000Y-98865000D03*
X159500000Y-100000000D03*
%TD*%
D12*
%TO.C,R3*%
X145125000Y-95937500D03*
X146950000Y-95937500D03*
%TD*%
D13*
%TO.C,C4*%
X151500000Y-88000000D03*
X151500000Y-89725000D03*
%TD*%
D12*
%TO.C,R2*%
X142625000Y-97437500D03*
X144450000Y-97437500D03*
%TD*%
D14*
%TO.C,U2*%
X151975000Y-104000000D03*
X151975000Y-104500000D03*
D15*
X152237500Y-105012500D03*
X152737500Y-105012500D03*
X153237500Y-105012500D03*
D14*
X153500000Y-104500000D03*
X153500000Y-104000000D03*
D15*
X153237500Y-103487500D03*
X152737500Y-103487500D03*
X152237500Y-103487500D03*
%TD*%
D12*
%TO.C,R4*%
X142625000Y-90937500D03*
X144450000Y-90937500D03*
%TD*%
D16*
%TO.C,TP6*%
X149000000Y-94000000D03*
%TD*%
%TO.C,TP2*%
X149000000Y-100500000D03*
%TD*%
D17*
%TO.C,J1*%
X138000000Y-89960000D03*
D18*
X138000000Y-92500000D03*
X138000000Y-95040000D03*
X138000000Y-97580000D03*
X138000000Y-100120000D03*
X138000000Y-102660000D03*
X138000000Y-105200000D03*
%TD*%
D19*
%TO.C,JP1*%
X158700000Y-104550000D03*
X160000000Y-104550000D03*
%TD*%
D16*
%TO.C,TP4*%
X159500000Y-89000000D03*
%TD*%
D11*
%TO.C,C7*%
X154895000Y-105432500D03*
X154895000Y-106567500D03*
%TD*%
D10*
%TO.C,REF\u002A\u002A*%
X162000000Y-112000000D03*
%TD*%
D20*
%TO.C,Q1*%
X145050000Y-100375000D03*
X146950000Y-100375000D03*
X146000000Y-98500000D03*
%TD*%
D16*
%TO.C,TP3*%
X149500000Y-88000000D03*
%TD*%
D10*
%TO.C,REF\u002A\u002A*%
X162000000Y-83000000D03*
%TD*%
D12*
%TO.C,R1*%
X145175000Y-102437500D03*
X147000000Y-102437500D03*
%TD*%
D21*
%TO.C,JP2*%
X145950000Y-88437500D03*
X145950000Y-87137500D03*
X145950000Y-85837500D03*
%TD*%
D22*
%TO.C,C2*%
X152000000Y-102135000D03*
X152000000Y-101000000D03*
%TD*%
D11*
%TO.C,C3*%
X155000000Y-100932500D03*
X155000000Y-102067500D03*
%TD*%
D23*
%TO.C,U3*%
X154050000Y-88200000D03*
X154050000Y-88850000D03*
X154050000Y-89500000D03*
X155950000Y-89500000D03*
X155950000Y-88200000D03*
%TD*%
D13*
%TO.C,C1*%
X158000000Y-99000000D03*
X158000000Y-100725000D03*
%TD*%
D10*
%TO.C,REF\u002A\u002A*%
X138000000Y-83000000D03*
%TD*%
D20*
%TO.C,Q2*%
X145050000Y-93937500D03*
X146950000Y-93937500D03*
X146000000Y-92062500D03*
%TD*%
D16*
%TO.C,TP7*%
X143000000Y-94000000D03*
%TD*%
%TO.C,TP1*%
X143000000Y-100500000D03*
%TD*%
D24*
%TO.C,U1*%
X153500000Y-96500000D03*
X153500000Y-96900000D03*
X153500000Y-97300000D03*
X153500000Y-97700000D03*
X153500000Y-98100000D03*
X153500000Y-98500000D03*
D25*
X154000000Y-99000000D03*
X154400000Y-99000000D03*
X154800000Y-99000000D03*
X155200000Y-99000000D03*
X155600000Y-99000000D03*
X156000000Y-99000000D03*
D24*
X156500000Y-98500000D03*
X156500000Y-98100000D03*
X156500000Y-97700000D03*
X156500000Y-97300000D03*
X156500000Y-96900000D03*
X156500000Y-96500000D03*
D25*
X156000000Y-96000000D03*
X155600000Y-96000000D03*
X155200000Y-96000000D03*
X154800000Y-96000000D03*
X154400000Y-96000000D03*
X154000000Y-96000000D03*
%TD*%
D13*
%TO.C,C5*%
X157637500Y-88137500D03*
X157637500Y-89862500D03*
%TD*%
D16*
%TO.C,TP5*%
X141000000Y-92500000D03*
%TD*%
M02*
